<mxfile host="app.diagrams.net" modified="2020-07-16T02:51:20.376Z" agent="5.0 (Windows NT 10.0; Win64; x64) AppleWebKit/537.36 (KHTML, like Gecko) Chrome/83.0.4103.116 Safari/537.36 Edg/83.0.478.64" etag="8NAL7KXrPxbYIfW_FK-b" version="13.4.4" type="github">
  <diagram id="Qy7qqipXVNAcnO234TPv" name="Page-1">
    <mxGraphModel dx="1422" dy="794" grid="1" gridSize="10" guides="1" tooltips="1" connect="1" arrows="1" fold="1" page="1" pageScale="1" pageWidth="1100" pageHeight="850" math="0" shadow="0">
      <root>
        <mxCell id="0" />
        <mxCell id="1" parent="0" />
        <mxCell id="WY3tp5vB1RY4RBT_FnPr-2" value="" style="shape=image;html=1;verticalAlign=top;verticalLabelPosition=bottom;labelBackgroundColor=#ffffff;imageAspect=0;aspect=fixed;image=https://cdn3.iconfinder.com/data/icons/data-sharing-and-cloud-lineal-style/512/apiprogrammingdevolperinterfaceappcomputer-128.png" vertex="1" parent="1">
          <mxGeometry x="474" y="296" width="128" height="128" as="geometry" />
        </mxCell>
        <mxCell id="WY3tp5vB1RY4RBT_FnPr-5" value="" style="verticalAlign=top;verticalLabelPosition=bottom;labelPosition=center;align=center;html=1;outlineConnect=0;fillColor=#647687;strokeColor=#314354;gradientDirection=north;strokeWidth=2;shape=mxgraph.networks.mobile;fontColor=#ffffff;" vertex="1" parent="1">
          <mxGeometry x="120" y="317" width="50" height="100" as="geometry" />
        </mxCell>
        <mxCell id="WY3tp5vB1RY4RBT_FnPr-8" value="" style="shape=image;verticalLabelPosition=bottom;labelBackgroundColor=#ffffff;verticalAlign=top;imageAspect=0;image=data:image/jpeg,/9j/4gv4SUNDX1BST0ZJTEUAAQEAAAvoAAAAAAIAAABtbnRyUkdCIFhZWiAH2QADABsAFQAkAB9hY3NwAAAAAAAAAAAAAAAAAAAAAAAAAAEAAAAAAAAAAAAA9tYAAQAAAADTLQAAAAAp+D3er/JVrnhC+uTKgzkNAAAAAAAAAAAAAAAAAAAAAAAAAAAAAAAAAAAAAAAAABBkZXNjAAABRAAAAHliWFlaAAABwAAAABRiVFJDAAAB1AAACAxkbWRkAAAJ4AAAAIhnWFlaAAAKaAAAABRnVFJDAAAB1AAACAxsdW1pAAAKfAAAABRtZWFzAAAKkAAAACRia3B0AAAKtAAAABRyWFlaAAAKyAAAABRyVFJDAAAB1AAACAx0ZWNoAAAK3AAAAAx2dWVkAAAK6AAAAId3dHB0AAALcAAAABRjcHJ0AAALhAAAADdjaGFkAAALvAAAACxkZXNjAAAAAAAAAB9zUkdCIElFQzYxOTY2LTItMSBibGFjayBzY2FsZWQAAAAAAAAAAAAAAAAAAAAAAAAAAAAAAAAAAAAAAAAAAAAAAAAAAAAAAAAAAAAAAAAAAAAAAAAAAAAAAAAAAAAAAAAAAAAAAAAAAAAAAAAAAAAAWFlaIAAAAAAAACSgAAAPhAAAts9jdXJ2AAAAAAAABAAAAAAFAAoADwAUABkAHgAjACgALQAyADcAOwBAAEUASgBPAFQAWQBeAGMAaABtAHIAdwB8AIEAhgCLAJAAlQCaAJ8ApACpAK4AsgC3ALwAwQDGAMsA0ADVANsA4ADlAOsA8AD2APsBAQEHAQ0BEwEZAR8BJQErATIBOAE+AUUBTAFSAVkBYAFnAW4BdQF8AYMBiwGSAZoBoQGpAbEBuQHBAckB0QHZAeEB6QHyAfoCAwIMAhQCHQImAi8COAJBAksCVAJdAmcCcQJ6AoQCjgKYAqICrAK2AsECywLVAuAC6wL1AwADCwMWAyEDLQM4A0MDTwNaA2YDcgN+A4oDlgOiA64DugPHA9MD4APsA/kEBgQTBCAELQQ7BEgEVQRjBHEEfgSMBJoEqAS2BMQE0wThBPAE/gUNBRwFKwU6BUkFWAVnBXcFhgWWBaYFtQXFBdUF5QX2BgYGFgYnBjcGSAZZBmoGewaMBp0GrwbABtEG4wb1BwcHGQcrBz0HTwdhB3QHhgeZB6wHvwfSB+UH+AgLCB8IMghGCFoIbgiCCJYIqgi+CNII5wj7CRAJJQk6CU8JZAl5CY8JpAm6Cc8J5Qn7ChEKJwo9ClQKagqBCpgKrgrFCtwK8wsLCyILOQtRC2kLgAuYC7ALyAvhC/kMEgwqDEMMXAx1DI4MpwzADNkM8w0NDSYNQA1aDXQNjg2pDcMN3g34DhMOLg5JDmQOfw6bDrYO0g7uDwkPJQ9BD14Peg+WD7MPzw/sEAkQJhBDEGEQfhCbELkQ1xD1ERMRMRFPEW0RjBGqEckR6BIHEiYSRRJkEoQSoxLDEuMTAxMjE0MTYxODE6QTxRPlFAYUJxRJFGoUixStFM4U8BUSFTQVVhV4FZsVvRXgFgMWJhZJFmwWjxayFtYW+hcdF0EXZReJF64X0hf3GBsYQBhlGIoYrxjVGPoZIBlFGWsZkRm3Gd0aBBoqGlEadxqeGsUa7BsUGzsbYxuKG7Ib2hwCHCocUhx7HKMczBz1HR4dRx1wHZkdwx3sHhYeQB5qHpQevh7pHxMfPh9pH5Qfvx/qIBUgQSBsIJggxCDwIRwhSCF1IaEhziH7IiciVSKCIq8i3SMKIzgjZiOUI8Ij8CQfJE0kfCSrJNolCSU4JWgllyXHJfcmJyZXJocmtyboJxgnSSd6J6sn3CgNKD8ocSiiKNQpBik4KWspnSnQKgIqNSpoKpsqzysCKzYraSudK9EsBSw5LG4soizXLQwtQS12Last4S4WLkwugi63Lu4vJC9aL5Evxy/+MDUwbDCkMNsxEjFKMYIxujHyMioyYzKbMtQzDTNGM38zuDPxNCs0ZTSeNNg1EzVNNYc1wjX9Njc2cjauNuk3JDdgN5w31zgUOFA4jDjIOQU5Qjl/Obw5+To2OnQ6sjrvOy07azuqO+g8JzxlPKQ84z0iPWE9oT3gPiA+YD6gPuA/IT9hP6I/4kAjQGRApkDnQSlBakGsQe5CMEJyQrVC90M6Q31DwEQDREdEikTORRJFVUWaRd5GIkZnRqtG8Ec1R3tHwEgFSEtIkUjXSR1JY0mpSfBKN0p9SsRLDEtTS5pL4kwqTHJMuk0CTUpNk03cTiVObk63TwBPSU+TT91QJ1BxULtRBlFQUZtR5lIxUnxSx1MTU19TqlP2VEJUj1TbVShVdVXCVg9WXFapVvdXRFeSV+BYL1h9WMtZGllpWbhaB1pWWqZa9VtFW5Vb5Vw1XIZc1l0nXXhdyV4aXmxevV8PX2Ffs2AFYFdgqmD8YU9homH1YklinGLwY0Njl2PrZEBklGTpZT1lkmXnZj1mkmboZz1nk2fpaD9olmjsaUNpmmnxakhqn2r3a09rp2v/bFdsr20IbWBtuW4SbmtuxG8eb3hv0XArcIZw4HE6cZVx8HJLcqZzAXNdc7h0FHRwdMx1KHWFdeF2Pnabdvh3VnezeBF4bnjMeSp5iXnnekZ6pXsEe2N7wnwhfIF84X1BfaF+AX5ifsJ/I3+Ef+WAR4CogQqBa4HNgjCCkoL0g1eDuoQdhICE44VHhauGDoZyhteHO4efiASIaYjOiTOJmYn+imSKyoswi5aL/IxjjMqNMY2Yjf+OZo7OjzaPnpAGkG6Q1pE/kaiSEZJ6kuOTTZO2lCCUipT0lV+VyZY0lp+XCpd1l+CYTJi4mSSZkJn8mmia1ZtCm6+cHJyJnPedZJ3SnkCerp8dn4uf+qBpoNihR6G2oiailqMGo3aj5qRWpMelOKWpphqmi6b9p26n4KhSqMSpN6mpqhyqj6sCq3Wr6axcrNCtRK24ri2uoa8Wr4uwALB1sOqxYLHWskuywrM4s660JbSctRO1irYBtnm28Ldot+C4WbjRuUq5wro7urW7LrunvCG8m70VvY++Cr6Evv+/er/1wHDA7MFnwePCX8Lbw1jD1MRRxM7FS8XIxkbGw8dBx7/IPci8yTrJuco4yrfLNsu2zDXMtc01zbXONs62zzfPuNA50LrRPNG+0j/SwdNE08bUSdTL1U7V0dZV1tjXXNfg2GTY6Nls2fHadtr724DcBdyK3RDdlt4c3qLfKd+v4DbgveFE4cziU+Lb42Pj6+Rz5PzlhOYN5pbnH+ep6DLovOlG6dDqW+rl63Dr++yG7RHtnO4o7rTvQO/M8Fjw5fFy8f/yjPMZ86f0NPTC9VD13vZt9vv3ivgZ+Kj5OPnH+lf65/t3/Af8mP0p/br+S/7c/23//2Rlc2MAAAAAAAAALklFQyA2MTk2Ni0yLTEgRGVmYXVsdCBSR0IgQ29sb3VyIFNwYWNlIC0gc1JHQgAAAAAAAAAAAAAAAAAAAAAAAAAAAAAAAAAAAAAAAAAAAAAAAAAAAAAAAAAAAAAAAAAAAAAAAAAAAAAAAAAAAAAAAAAAAAAAAAAAAAAAAABYWVogAAAAAAAAYpkAALeFAAAY2lhZWiAAAAAAAAAAAABQAAAAAAAAbWVhcwAAAAAAAAABAAAAAAAAAAAAAAAAAAAAAAAAAAAAAAACWFlaIAAAAAAAAAMWAAADMwAAAqRYWVogAAAAAAAAb6IAADj1AAADkHNpZyAAAAAAQ1JUIGRlc2MAAAAAAAAALVJlZmVyZW5jZSBWaWV3aW5nIENvbmRpdGlvbiBpbiBJRUMgNjE5NjYtMi0xAAAAAAAAAAAAAAAAAAAAAAAAAAAAAAAAAAAAAAAAAAAAAAAAAAAAAAAAAAAAAAAAAAAAAAAAAAAAAAAAAAAAAAAAAAAAAAAAAAAAAAAAAABYWVogAAAAAAAA9tYAAQAAAADTLXRleHQAAAAAQ29weXJpZ2h0IEludGVybmF0aW9uYWwgQ29sb3IgQ29uc29ydGl1bSwgMjAwOQAAc2YzMgAAAAAAAQxEAAAF3///8yYAAAeUAAD9j///+6H///2iAAAD2wAAwHX/4AAQSkZJRgABAQAAAQABAAD/2wBDAAgICAgJCAkKCgkNDgwODRMREBARExwUFhQWFBwrGx8bGx8bKyYuJSMlLiZENS8vNUROQj5CTl9VVV93cXecnNH/2wBDAQgICAgJCAkKCgkNDgwODRMREBARExwUFhQWFBwrGx8bGx8bKyYuJSMlLiZENS8vNUROQj5CTl9VVV93cXecnNH/wgARCAdiA7EDASIAAhEBAxEB/8QAGwABAAMAAwEAAAAAAAAAAAAAAAQFBgECAwf/xAAaAQEAAwEBAQAAAAAAAAAAAAAAAQMEAgUG/9oADAMBAAIQAxAAAAHIj6i4AAAAAAAAAAAAAAAAAAAAAAAAAAAAAAAAAAAAAkx4cJMYAACR2k8oj38JBIAcw4duoEh6Q83qh5PXg8x0Pfxhw9B5vTqdXbrIAAADS81Onwc5rVZ/RcqCivPe+YV3ldtVGI2WMk3Tf5De4LkGuQAAAAAAAAAAAAAAAAAAAAAAAAAAAF5R3NMWsOJMzRY5G9ztk2e1yWwzcw7Sqm5oxdPoc96/d3fYpWuqHvZ9oWol++PnDR5Hh6HetkVdr53HPn6QOVBDvaL0e7raZLcebx0W7BxUUuxw2jqqrtNmPS603hZVmeJvHlL5QeMzp7pj5iyrdUhdIAAEnXYywzQ9arQwuMl5y+Yqd7grbtW7/B3fCHUaLO2yF8gAAAAAAAAAAAAAAAAAAAAAAAAAbmoo/PJGrtcF25jymwGvq4r5szPHrmZMa1d6f5/b542FbQqnvQdum6bqBH5hpbrCs0bphXLmL267umoy/fhs6ir7URPo+eNE3uw+Zzs3P0d85Zo+jZ/M8dzZwqvjbOy8sv51r6NV9bFtZ5jrD6H8+dYBokAkLO46QI6QI6QI6QI6QI6QI6QI6QI6QI6QI6QI6QI6QI6QI6QI6QI6QI6QI6QI6QI6QI6QI6QI6QI6QI6QI6QI6QI6QI6QI6QI6QI6QI6QI6QI6QI6QI6QI6QI6QI6QI6QI6QI6QI6QI6QI6QI6QI6QI6QI6QI6QI6QI6QI6QI6QI6QI6QI6QOwvuAAAAAAAAAAAAAAAAAAAAAAAAAAAAAAAAAAAAAAAAAAAAAAAAAAAAAAAAAAAAAAAAAAAAAAAAAAAAAAAAAAAAAAAAAAAAAAAAAAAAAAAAAAAAAAAAAAAAAAAAAFjxFctq7l5C2QACXxXEUWSAAd7SvmoW8blBWtV1IWSASLKnmlF3QAAAAAAAAAAAAAAAAAAAAAAAAAAAAAAAAAAAAAAAAAAAD6R83+keXTnr/AOdaLlTL3QdPnEqP9Ev6wHppp9HOW8ryHM0M3S+BkffVSpY3jUXlcfPt7g93XGcgTafT1dUH0Ggpii8foFJYofPaSOGL1Oe2tcYKv28HT1mJ9/4GY672p6moi66RVzg5k/Q2zi4/0TCdTGG2wAAAAAAAAAAAAAAAAAAAAAAAAAAAAAAAAAAAAAB9I+b/AEjzKfnGmsJdUUOj+e/QOI+efRau0hVUd3SX9T+nfrCz87esycSOvp58sducNudneL2mL1XMZ2vjvTt+j0F/QeLRGtqnx196Tr7xcPFPb5zc3z882il7mZxZwKYtsNus50s/JY1xWysxq+3hltNjNXfkPUuAAAAAAAAAAAAAAAAAAAAAAAAAAAAAAAAAAAAAAd+iI9PMg7dUvbp0cu3HDp2dR37eSHd0HPbolz26AJnvx1cxzwS9Xk5c9ujpIjkO3p4jv0JSPHq5PXydPXyAJkAAAAAAAAAAAAAAAAAAAAAAAAAAAAAAAAAAAAAAAAAAAAAAAAAAAAAAAAAAAAAAAAAAAAAAAAAAAAAAAAAAAAAAAAAAAAAAAAIgAAAAAAAAAAAAAAAAAAAAAAAAAAAAAAAAAAAAAAAAAAAAAAAAAAAAAAAAAAD6qlvjsMRLERLERLERLERLERLERLERLERLERLERLERLERLERLERLERLERLERLERLERLERLERLERLERLERLERLERLERLERLERLERLERLERLERLERLERLERLERLERLERLERLERLERLERLERLERLERLERLERLERLERLERLERLERLERLERLERLERLERLHIgAAAAAAAAAAAAAAAAAAAAAAAAAAAAAAAAAAAAAAAAAAAAAAAAAAAAAAAAAAAAAAAAAAAAAAAAAAAAAAAAAAAAAAAAAAAAAAAAAAAAAAAAAAAAAAAAAAAAAAAAAAAAAAAAAAAAAAAAAAAAAAAAAAAAAAAAAAAAAAAAAAAAAAAAAAAAAAAAAAAAAAAAAAAAAAAAAAAAAAAAAAAAAAAAAAAAAAAAAAAAAAAAAAAAAAAAAAAAAAAAAAAAAAAAAAAAAAAAAAAAAAAAAAAAAAAAAAAAAAAAAAAAAAAAAAAAAAAAAAAAAAAAAAAAAAAAAAAAAAAAAAAAAAAAAAAAAAAAAAAAAAAAAAAAAAAAAAAAAAAAAAAAAAAAAAAAAAAAAAAAAAAAAAAAAAAAAAAAAAAAAAAAAAAAAAAAAAAAAAAAAAAAAAAAAAAAAAAAAAAAAAAAAAAAAAAAAAAAAAAAAAAAAAAAAAAAAAAAAAAAAAAAAAAAAAAAAAAAAAAAAAAAAAAAAAAAAAAAAAAAAAAAAAAAAAAAAAAAAAAAAAAAAAAAAAAAAAAAAAAAAAAAAAAAAAAAAAAAAAAAAAAAAAAAAAAAAAAAAAAAAAAAAAAAAAAAAAAAAAAAAAAAAAAAAAAAAAAAAAAAAAAAAAAAAAAAAAAAAAAAAAAAAAAAAAAAAAAAAAAAAAAAAAAAAAAAAAAAAAAAAAAAAAAAAAAAAAAAAAAAAAAAAAAAAAAAAAAAAAAAAAAAAAAAAAAAAAAAAAAAAAAAAAAAAAAAAAAAAAAAAAAAAAAAAAAAAAAAAAAAAAAAAAAAAAAAAAAAAAAAAAAAAAAAAAAAAAAAAAAAAAAAAAAAAAAAAAAAAAAAAAAAAAAAAAAAAAAAAAAAAAAAAAAAAAAAAAAAAAAAAAAAAAAAAAAAAAAAAAAAAAAAAAAAAAAAAAAAAAAAAAAAAAAAAAAAAAAAAAAAAAAAAAAAAAAAAAAAAAAAAAAAAAAAAAAAAAAAAAAAAAAAAAAAAAAAAAAAAAAAAAAAAAAAAAAAAAAAAAAAAAAAAAAAAAAAAAAAAAAAAAAAAAAAAAAAAAAAAAAAAAAAAAAAAAAAAAAAAAAAAAAAAAAAAAAAAAAAAAAAAAAAAAAAAAAAAAAAAAAAAAAAAAAAAAAAAAAAAAAAAAAAAAAAAAAAAAAAAAAAAAAAAAAAAAAAAAAAAAAAAAAAAAAAAAAAAAAAAAAAAAR60ulKLpS2RIUoulKLpHkAA6nZSi6UoukWAXKlF0pZhOAAAAAAAAAAAAAAAAAAAAAAAAAAAAAAAAAAAAAAAAAAAAAABXY/wCgj58+gj59rrMfPn0EfPn0EVdoADz9B8+fQR8+fQRTZvej58+gj59f6IAAAAAAAAAAAAAAAAAAAAAAAAAAAAAAAAAAAAAAAAAAAAAAAAAAAAAAAAAAAAAAAAAAAAAAAAAAAAAAAAAAAAAAAAAAAAAAAAAAAAAAAAAAAAAAAADgxnXr1NzzxyAAAAAAAAAAAAAAAAAAAAAAAAAAAAAAAAAAAAAAAAAAAAAAAAAAAAAAAAAAcOQAAAAAAAAAAAAAAAAAAAAAAAAAAAAAAAAAAAAAAAAAAAAAAAAAAAAAAAAAAAAAAAAAAAAAAAAAAAAAAAAAAAAAAAAAAAAAAAAAAAAAAAAAAAAAAAAAAAAAAAAAAAAAAAAAAAAAAAAAAAAAAAAAAAAAAAAAAAAAAAAAAAAAAAAAAAAAAAAAAAAAAAAAAAAAAAAAAAAAAAAAAAAAAAAAAAAAAAAAAAAAAAAAAAAAAAAAAAAAAAAAAAAAAAAAAAAAAAAAAAAAAAAAAAAAAAAAAAAAAAAAAAAAAAAAAAAAAAAAAAAAAAAAAAAAAAAAAAAAAAAAAAAAAAAAAAAAAAAAAAAAAAAAAAAAAAAAAAAAAAAAAAAAAAAAAAAAAAAAAAAAAAAAAAAAAAAAAAAAAAAAAAAAAAAAAAAAAAAAAAAAAAAAAAAAAAAAAAAAAAAAAAAAAAAAAAAAAAAAAAAAAAAAAAAAAAAAAAAAAAAAAAAAAAAAAAAAAAAAAAAAAAAAAAAAAAAAAAAAAAAAAAAAAAAAAAAAAAAAAAAAAAAAAAAAAAAAAAAAAAAAAAAAAAAAAAAAAAAAAAAAAAAAAAAAAAAAAAAAAAAAAAAAAAAAAAAAAAAAAAAAAAAAAAAAAAAAAAAAAAAAAAAAAAAAAAAAAAAAAAAAAAAAAAAAAAAAAAAAAAAAAAAAAAAAAAAAAAAAAAAAAAAAAAAAAAAAAAAAAAAAAAAAAAAAAAAAAAAAAAAAAAAAAAAAAAAAAAAAAAAAAAAAAAAAAAAAAAAAAAAAAAAAAAAAAAAAAAAAAAAAAAAAAAAAAAAAAAAAAAAAAAAAAAAAAAAAAAAAAAAAAAAAAAAAAAAAAAAAAAAAAAAAAAAAAAAAAAAAAAAAAAAAAAAAAAAAAAAAAAAAAAAAAAAAAAAAAAAAAAAAAAAAAAAAAAAAAAAAAAAAAAAAAAAAAAAAAAAAAAAAAAAAAAAAAAAAAAAAAAAAAAAAAAAAAAAAAAAAAAAAAAAAAAAAAAAAAAAAAAAAAAAAAAAAAAAAAAAAAAAAAAAAAAAAAAAAAAAAAAAAAAAAAAAAAAAAAAAAAAAAAAAAAAAAAAAAAAAAAAAAAAAAAAAAAAAAAAAAAAAAAAAAAAAAAAAAAAAAAAAAAAAAAAAAAAAAAAAAAAAAAAAAAAAAAAAAAAAAAAAAAAAAAAAAAAAAAAAAAAAAAAAAAAAAAAAAAAAAAAAAAAAAAAAAAAAAAAAAAAAAAAAAAAAAAAAAAAAAAAAAAAAAAAAAAAAAAAAAAAAAAAAAAAAAAAAAAAAAAAAAAAAAAAAAAAAAAAAAAAAAAAAAAAAAAAAAAAAAAAAAAAAAAAAAAAAAAAAAAAAAAAAAAAAAAAAAAAAAAAAAAAAAAAAAAAAAAAAAAAAAAAAAAAAAAAAAAAAAAAAAAAAAAAAAAAAAAAAAAAAAAAAAAAAAAAAAAAAAAAAAAAAAAAAAAAAAAAAAAAAAAAAAAAAAAAAAAAAAAAAAAAAAAAAAAAAAAAAAAAAAAAAAAAAAAAAAAAAAAAAAAAAAAAAAAAAAAAAAAAAAAAAAAAAAAAAAAAAAAAAAAAAAAAAAAAAAAAAAAAAAAAAAAAAAAAAAAAAAAAAAAAAAAAAAAAAAAAAAAAAAAAAAAAAAAAAAAAAAAAAAAAAAAAAAAAAAAAAAAAAAAAAAAAAAAAAAAAAAAAAAAAAAAAAAAAAAAAAAAAAAAAAAAAAAAAAAAAAAAAAAAAAAAAAAAAAAAAAAAAAAAAAAAAAAAAAAAAAAAAAAAAAAAAAAAAAAAAAAAAAAAAAAAAAAAAAAAAAAAAAAAAAAAAAAAAAAAAAAAAAAAAAAAAAAAAAAAAAAAAAAAAAAAAAAAAAAAAAAAAAAAAAAAAAAAAAAAAAAAAAAAAAAAAAAAAAAAAAAAAAAAAAAAAAAAAAAAAAAAAAAAAAAAAAAAAAAAAAAAAAAAAAAAAAAAAAAAAAAAAAAAAAAAAAAAAAAAAAAAAAAAAAAAAAAAAAAAAAAAAAAAAAAAAAAAAAAAAAAAAAAAAAAAAAAAAAAAAAAAAAAAAAAAAAAAAAAAAAAAAAAAAAAAAAAAAAAAAAV1iAAAAAAAAAAAAAAAAAAAAAAAAAAAAAAAAAAAAAAAAAAAAAAAAAAAAAOsOuLv0y+oAAACFTEy6x+tO4AB0O7LSy+AAM8aHjPwjXAAAGbNJ4530NIAAAAAAAAAAAAAAAAAAAAAAAAAAAAAAAAAABEl4kupUakNtF5xxfe3jXGsrPGGXcPylFTfUNsenvltAJGesySqZhJ60nBLusvpDpB6Sz1k4rVnWyxmyM7Z0VydbbH6UiW2E3RVTs5ZDiq5NbUc0ZcW1PCNF4+NeaCsnQTwixxqIPvQGsq7HFG68unkeFpjdcegAAAAAAAAAAAAAAAAAAAAAAAAAAAAAAGP2GFNXRazJl9ldVmSzgyZJ07+cUnS813Jl/WQys0tBNOLOruirucvpjH6nMbswWyyGuM5dUXqeOtxmwMjtcDZHOhyW0MteUckp9tj7E711j4lvR6TNl5TWHQss5pM2XddbZs0WfuaYlR9HnDU4zU5Q2mMl8lpH0GLO+uxe3OwAAAAAAAAAAAAAAAAAAAAAAAAAAAAAAHHIccjhyHHI4cjiHN4K+fXWZ155AHXsHHIcORw5HDkcORxyHHIdXYcORxyHHIcOQ69g69g45HDkccg69h17AAAAAAAAAAAAAAAAAAAAAAAAAAAAAAAAAAAAAAAAAAAAAAAAAAAAAAAAAAAAAAAAAAAAAAAAAAAAAAAAAAAAAAAAAAAAAAAAAAAAAAAAAAAAAAAAAAAAAAAAAAAAAAAAAAAAAAAAAAAAAAAAAAAAAAAAAAAAAAAAAAAAAAAAAAAAAAAAAAAAAAAAAAAAAAAAAAAAAAAAAAAAAAAAAAAAAAAAAAAAAAAAAAAAAAAAAAAAAAAAAAAAAAAAAAAAAAAAAAAAAAAAAAAAAAAAAAAAAAAAAAAAAAAAAAAAAAAAAAAAAAAAAAAAAAAAAAAAAAAAAAAAAAAAAAAAAAAAAAAAAAAAAAAAAAAAAAAAAAAAAAAAAAAAAAAAAAAAAAAAAAAAAAAAAAAAAAAAAAAAAAAAAAAAAAAAAAAAAAAAAAAAAAAAAAAAAAAAAAAAAAAAAAAAAAAAAAAAAAAAAAAAAAAAAAAAAAAAAAAAAAAAAAAAAAAAAAAAAAAAAAAAAAAAAAAAAAAAAAAAAAAAAAAAAAAAAAAAAAAAAAAAAAAAAAAAAAAAAAAAAAAAAAAAAAAAAAAAAAAAAAAAAAAAAAAAAAAAAAAAAAAAAAAAAAAAAAAAAAAAAAAAAAAAAAAAAAAAAAAAAAAAAAAAAAAAAAAAAAAAAAAAAAAAAAAAAAAAAAAAAAAAAAAAAAAAAAAAAAAAAAAAAAAAAAAAAAAAAAAAAAAAAAAAAAAAAAAAAAAAAAAAAAAAAAAAAAAAAAAAAAAAAAAAAAAAAAAAAAAAAAAAAAAAAAAAAAAAAAAAAAAAAAAAAAAAAAAAAAAAAAAOp2VdbXp0zFReNW+fPUWfQ3z+VPG2Zay7y27p3sygAAAAAAAAAAAAAAAAAAAAAAAAAAAAAAAAAAAAAAAAAAAAAAAAAADqdo9LnKPSvqTyZ/aDjQAAAB3uaN1RvZXzm/0+Np3Tvf5YAAAAAAAAAAAAAAAAAAAAAAAAAAAAAAAAAAAAAAAAAAAAAAAAiRPfIR4+T6EKfSAAAAAAAAl7DCetvn/QlfYbPnQnkAAAAAAAAAAAAAAAAAAAAAAAAAAAAAAAAAAAAAAAAAAAAAdTxxEivx/RBT6QAAAAAAAAAHptsLJtwb55+mz5oJAAAAAAAAAAAAAAAAAAAAAAAAAAAAAAAAAAAAAAAAAAAAM5d4Kj0uoyfRAAAAAAAAAAAAXes+cbjV4M8aPJAAAAAAAAAAAAAAAAAAAAAAAAAAAAAAAAAAAAAAAAAAAHQzND6efn/WBzoAAAAAPTo54DoAAAABbVLqr6OjyN/yITAAAAAAAAAAAAAAAAAAAAAAAAAAAAAAAAAAAAAAAAAACot8tXqoRh+qAAAAAOZc129R7QrMfkKvQAAAAAA1F/jdlt+YC3EAAAAAAAAAAAAAAAAAAAAAAAAAAAAAAAAAAAAAAAAAAxG3+fUep4jJ9AAAAPZHikxp52MSisNHkWmYvYcdVDtLo9SEesdeSTGkEdAAASN/84+i6fC7DT5AAAAAAAAAAAAAAAAAAAAAAAAAAAAAAAAAAAAAAAAAAHHzz6H87z+x1GX3AAAGhz2hsxT8hr8v3m20W0qtHkecfvmqfSup+V3ExmJHHPN1zidtiY6Cj1AAAOPoXz36Fo8b2GrxAAAAAAAAAAAAAAAAAAAAAAAAAAAAAAAAAAAAAAAAAAOPn30LDZ/VgjL74AADQ56/sxWeO1tVZigolzVv0VHPgaPJqdpElTzWxZFsR8TtsTVvCj1AAAOPouB+g6fDDT44AAAAAAAAAAAAAAAAAAAAAAAAAAAAAAAAAAAAAAAAADJ6ylr15IYfqQAAHp5kXlR5OqXr5Obryn83VNjLo08dpMRzdZVvHIEWAAAWW1zmj2/MhbhAAAAAAAAAAAAAAAAAAAAAAAAAAAAAAAAAAAAAAAAAAeXqh8663FPg+uDm4AAAAAAAAAAAAWE16uYeh8iE8gAAAAAAAAAAAAAAAAAAAAAAAAAAAAAAAAAAAAAAAAAAQsL9Hymf1aMZffAAAAAAAAAAAAbKg2mnxA0+MAAAAAAAAAAAAAAAAAAAAAAAAAAAAAAAAAAAAAAAAAAAA8vVDAxtzicf03QVbgAAAAAAAAAHp02NmOZJNvzATAAAAAAAAAAAAAAAAAAAAAAAAAAAAAAAAAAAAAAAAAAAAACss0d/O+m4x2P6PwFW4AAAAAAABz311mPyujZ82HVYAAAAAAAAAAAAAAAAAAAAAAAAAAAAAAAAAAAAAAAAAAAAAADx9kTkKf6PW0etilnWZvYCLQAAABPmuBZX9to8iNJNHjhMAAAAAAAAAAAAAAAAAAAAAAAAAAAAAAAAAAAAAAAAAAAAAAAAAAIspE56s2ivb8+8Po/SvV87b9FmA9t76TxirLSLMsKaWYgnkAAAAAAAAAAAAAAAAAAAAAAAAAAAAAAAAAAAAAAAAAAAAAAAAAAAAAAAAAAAAAAAAAAAAAAAAAAAAAAAAAAAAAAAAAAAAAAAAAAAAAAAAAAAAAAAAAAAAAAAAAAAAAAAAAAAAAAAAAAAAAAAAAAAAAAAAAAAAAAAAAAAAAAAAAAAAAAAAAAAAAAAAAAAAAAAAAAAAAAAAAAAAAAAAAAAAAAAAAAAAAAAAAAAAAAAAAAAAAAAAAAAAAAAAAAAAAAAAAAAAAAAAAAAAAAAAAAAAAAAAAAAAAAAAAAAAAAAAAAAAAAAAAAAAAAAAAAAAAAAAAAAAAAAAAAAAAAAAAAAAAAAAAAAAAAAAAAAAAAAAAAAAAAAAAAAAAAAAAAAAAAAAAAAAAAAAAAAAAAAAAAAAAAAAAAAAAAAAAAAAAAAAAAAAAAAAAAAAAAAAAAAAAAAAAAAAAAAAAAAAAAAAAAAAAAAAAAAAAAAAAAAAAAAAAAAAAAAAAAAAAAAAAAAAAAAAAAAAAAAAAAAAAAAAAAAAAAAAAAAAAAAAAAAAAAAAAAAAAAAAAAAAAAAAAAAAAAAAAAAAAAAAAAAAAAAAAAAAAAAAAAAAAAAAAAAAAAAAAAAAAAAAAAAAAAAAAAAAAAAAAAAAAAAAAAAAAAAAAAAAAAAAAAAAAAAAAAAAAAAAAAAAAAAAAAAAAAAAAAAAAAAAAAAAAAAAAAAAAAAAAAAAAAAAAAAAAAAAAAAAAAAAAD/xAA1EAACAgECBAQFAwMDBQAAAAACAwABBBETBRIUMxAwNGAgIjEyQBUhUCMkNUGQsEVwgMDQ/9oACAEBAAEFAv8AuGamBUJTBH46rW9hvOazXfx6X8PKU5DnIc5DnKXjS2FUESKWNjdDZXdXXlY/DyaOdjKQGKumPYrhyyy+j5ZjYZ5EdgpTjrXbGEjAxqy8NWz/ADmJaF03kqb+CU5tkD5OfDWLMirVTKenkCkMDNUKnzD26ttallhyhFKNp4KKDJd3aq7tWCpQ1mBUvNZU2cLLpyTScwFizIXvuDYyJsZE2MiZTn4pZ4ALMYKY/JzWJbxABKnt6IBOs7HxuesPMWTJmHSg8hbWWXFft4fY1kNDCY7Mw9iXmKvEFjBo/wDGAwllq7JZlEOPifzmAFFk1YPyeh25g/PU4f6rISp5sLFaamYy5xP1M0Kcxa3d3FYxbwLBfEEeud3au6tJg9lZbTl5GcuOLFYswe/w4b38L0vjxf65uz0mOBm5+RiCziNFctuLlrZS8PFBjF2m7SliMiq8hXc4r9uLj082YTgbxK6rH6Z21D/xgiRklFYiXLy2F/L4WMg0JQq83iKErFeHjXjzGbtOy8e1mTGHSh6bHnD/AFRHaswBvq8fmB3EvUyq5WABuY3DHHrJ9b/1JHrnd7wVluICdl4t1yczGiHhw8hHIUw0B1c6udXMwGZZcRsdzDbSnu4eTGZpAtGAjdZmP3m4mPvN6oDzapwM8gb5bflsfQkQ3XE31TXMcV5jrRLzG2lTLUf6nkS+JPuv5cWGM10hGZ3uHy+Cctqq66qjGm0pV3V9flzr8udfly7srmtwSIbJrTltbd7reamtovGrura5jbB7QHxrJyKnVZM6rJnVZM6rI8aMq8Nb+DW/fmlTSppU0qaVNKmlTSppU0qaVNKmlTSppU0qaVNKmlTSppU0qaVNKmlTSppU0qaVNKmlTSppU0qaVNKmlTSppU0qaVNKmlTSppU0qaVNKmlTSppU0qaVNKmlTSppU0qaVNKmlTSppU0qaVNKmlTSppU0qaVNKmlTSppU0qaVNKmlTSppU0qaVNKmlTSppU0qaVNKmlTSppU0qaVNKmlTSppU0qaVNKmlTSppU0qaVNKmlTSppU0qaVNKmlTSppU0qaV/sshivYPQ5UIDC/iUk3E1JpL4hGyLocqdDlRuO5VdG+lfCoNxmTh3jj7awPR/qjos05qnKtTNlvLLS0aBbDgocV45PS3KY1jBEiu8XIrwFTDoEtOGpi5j9/MeSF/qj4/LY+ryMvpxAzlIdZGBAQIcyGpi5i+o4pV2F4uRVSqu76TJl1dXKxcgqMDC4CHMhqYv2hgejnDL/uOKV/Vb6D/XO9JwqPzloPBPczOJ+oQ/Fx0J4kZN4modOF9lvENswscrGR6jNQb1/pmRHJJJn6DhfdyMxeOSRrMysrO2CQ4cxSg283KeKAxuIWxnEk0JYTMVKq4ozn4ioSTwxQkeTntU4n42QjBRTm5WbsFjvHLW5e2z2dgejnDAve4mWrm+g/1zvScJmd6rhff4n6hWIhKQzMaz4n2OF9h/e4d6VPqs9zFK6/KjGG0j9Bwvu8S9Twr7WuwaYGZhLm4LOIcV7ae9xPsYmGva63EqZvpMfINB9ZhujsBRBwr6OdhCwMzBCZbBa/2dgek/S1wnY+IszsyxjDIxv01a7zvScKmb6rhff4n6irXl4wYC0lxKtcfhfYf3uH+lV6rinZ8D9Bwvu8S9ThZGw1+IrJg4CE0jl6vJWp1I4eKj4i+mHiMW/GrhoBeZ82Jw9yxjeG8x6hhY+HkbDX4i8qBgITR8vN7O5rnMXjV3VkwymtyruvDW6mt3KKxhGZTmua3Xhrfhrd+PMU1uprr4CZjCMi8NbltZdSruoTDKcxeFNZUu7vwEzGEZF/tPbQTaCbQTaCbQTaCbQTaCbQTaCbQTaCbQTaCbQTaCbQTaCbQTaCbQTaCbQTaCbQTaCbQTaCbQTaCbQTaCbQTaCbQTaCbQTaCbQTaCbQTaCbQTaCbQTaCbQTaCbQTaCbQTaCbQTaCbQTaCbQTaCbQTaCbQTaCbQTaCbQTaCbQTaCbQTaCbQTaCbQTaCbQTaCbQTaCbQTaCbQTaCbQTaCbQTaCbQTaCbQTaCbQTaCbQTaCbQTaCbQTaCbQTaCbQTaCbQTaCbQTaCbQTaCbQTaCbQTaCbQTaCbQTaCbQTaCbQf8Ap2rDpYdcqdcqdcqdcqblbXXKnXKnXKnXKimUwfgu9K65U65U65U65UU0Wjeaur65U65U65US8W+3srsaXNCmhTS5XpNLmhTQpoUw+x8Bfbpc0KaFNLmF2zq+bQpoU0KYNXr/AOZznmZKeay96uUSzUsmF/8ABcHP2i913dVKIS8rIDcv8rnHm9n5BWKSKywsH7/je3aAbE4zVa6+nwl+1bjdtjiM/hZkczKg/N5D3XbP7SYxWWR7GY5ap1wReUo7jGrXOuCDmJvwLKCr+R6nhQYuD97WiuLyAMmHSxVkA22MpYqeLYx4rtbVumqLa7pQJd1azyFBOuCKyFshmKxHKCyj6xRNVJBfWB4dYvmnVrlbZ08sZcxrRZa6Qs1VSs5cExOmMpYpeLYRCNXnKqdYq4x4CwLLk6xcq6uhzFkUMxAayw1/n3UzcSOK2shdKYouZXzObY4apkqAawiu1s3cccHt5fYwfves7IGEeVlenwe5mdjA+rhYDMY7LJ1vmzO+jsOVj7tY+KYnVqa5e8p7WGdfTN7wBz4rzbQo7N96/wB43dQvFLlx6C2jhd/Mplgm0DeRjq2sItGZnYwPq1dMAcRAx/TzEobdk9hJNMAHkBXdNqwtwbqshjLgfb/PZDTNiUCqZvexux23newy9ekwPpnfZg/Zl9jB+9jVriioWvMDx8HuZnYwPq/sgfLe1/aGXNaOxTaHIxRKqy/UB28jv19M3vY/Zze8tgAi7rcBgMmfOf8AokG3i4XfymEteOnet3Yw+/mdjA+7JZa1oTv2VFj1h99ljQBRExfPQK7uYrmHBZMvvh9n88femd3sbsZXfEG5N5lUKcD6Zjbs1ZBqpmQxtYaiGmWI5WOvcbk4+3WD3MobJNbO03Xp0jztjh5Go7GQs1t6500Y9h3tqM+cutbP6rzAeUM3vY2Pz00NtqdCys+YS9Tf2cLv53bwPsf2MPv5I2Sa2dnJEix/6W25e4rD7+V2FNJV3mNusVJEy61r58dt8z21+1ex/wBo4+QUNtkuquaafBpXx/t4/tP2+HSrmlV5WleGlfB+3wXVXNKr2XjIJX/KH3dVCy0jCz7l5b7lubc5znOc3W1Ky31Bzyg5iblFRe6jYAUzOuEZn5YkQxeadRbls9zfSOzYRWV+dV3VpzbqUVFXuJjBWLsg2/hqcarS4W17ga0VCxpML8QDICQ+m17eYwVi1hNL8YDICS4Wj7cu9JkO3T/IS21GJUQ+28135eG7lL2009sLuyv8vHbuL9s5zNb/ADMNnIz2xd6UZcxeaIGUurq/OUfOHtfMPlT53D5kd7zsA/l9r55fN5lVdzp3xTTx4Zc5+dhlo72vlXq/zFJ2lX18HV1MC1n5yr0b7XZerPJBZnCS0Kgk65VZ0o86o+nHKq7u8d9VAAzhJaNeVX09rF93k4H1zexVa2pQrEstI31qY3LUS8DTXHvJ3MwKF2B9+Z6fyg+z2sX3eTgfXN7Ce7OkTCwQhgQEJkFoOzVn9zA+/M9P5S/s9rM7nk4H1zKu01d1e+6b7pjmRrz6+ZaTZEhYKy8djLwqsW5np/Kr6e1smtH+TgX8zXsB2cNUyYQ1bFZDCdn38yvlxUc21kZJLcswZWZ6fyV1qz2vnDozyRIgLrzhmTCgGSy684ZEZKyWKq89ml3ZWp5qjMtjA8nEHV3tfNHVX52APtgx5hutL/NQHIr2xmr5WfmYy9xvtl69xf5mIrkX7azE8pflYqdw/bZDRi1dqP8AIALMlLpYe3HppokNjf41VdzGx9qvb2Rj02iGxv8AEqtZjY237hegW0xRrv8ACECO8fGpXuMwE6dhmH4KsU2RagXXuVuMtkZiNDzV4zWRWIsPdRpWcLAqFhuGWtlfDQHcHEcUHAgIUHvDlGbSpsqnIP8Axdn/xAA8EQABAwIDBAcECAYDAAAAAAABAAIRAxIEBSEgMUFQECIwMlFhcRM0QoEVI0BDUlORsRQzYGJyoXCQwP/aAAgBAwEBPwHn3FHoKKH249AR6BuUdE7LlKG9cNgbMarVaohGUPtkKNghQemFHTHQQrVaoUdEIDpsKsKsKsKsKsKsKsKsKsKsKsKsKsKsKsKsKsKsKsKsKsKsKsKsKsKsKsKsKsKsKsKsKsKsKsKsKsKsKsKsKsKsKsKsKsKsKsKsKsKsKsKsKsKsKsKsKsKsKsP9dzCkHYkTGxICuHigQem4THLqu4eqcwBshXmGpzoIRebiAED193BXO1gK/qXK9w3jRPi9soWcEHaOMIPO8jRXu3xonnrtIQeZghFzuAQf1ZV7tNNEXmYCa6dDv5RV3D1Tn3CAnCGtTnBzmwh/MK+9+Ska3TK+6VTuBO77FACHdeomkurHFO0c1Tc8Qp1N0pncOindaT6Jwh8mUy2ZE8rjso2Y/wCIJKkqSpKkqSpKkqSpKkqSpKkqSpKkqSpKkqSpKkqSpKkqSpKkqSpKkqSpKkqSpKkqSpKkqSpKkqSpKkqSpKkqSpKkqSpKkqSpKkqT/wCIoZg8Q/dTPz0Tcqrne5oX0S/80J2VVuDmlPwWJZvpn5aqOa4fLalTWp1W/wC1SwtCj3WfPaq4ajVHXYFiMsezrUusPDit3MWtc5waBqVhMA2lDn6v/bssXgWVhc3R/wC6exzHFrhBHMMBhPZNvd3z/rtMbhBXZc3vhERoeXZbh/aVPaO7rf37bM8Na72rRod/LsNSFKixv67dzZiRPht16Yq0nMPEIiCQeHLMEy/E0x5z+m26pTZ3ngKjSf8AxlWr8DhoewzBlmJd568syps1nnwbsuc1olxgJr2vEtcCnUHse4vqUXE/jWFLqVaLqdjuAdxTqtNphzwCi5rRJOia9rxLXA7ObN61J3lyzKO9V9Bs5h7pUWXG3B1D4Eqm6k57nVy4+iw1DA1XdRz5GsFZgx1MvfDSHwNd4TiTlev4VlPu7/8APZzfu0vnyzKnfXPHi3ZzD3WosveWBtJzdHyQVXbQpUnP9k3TyWFa5uOZpEyYHmsbiH1p3BjXwBxTqldmDDHN+rcNCsp93f8A57ObO61JvkeWYF9mJZ56bJAcCCNFTw1GkbmMgpzQ4EESCqWGo0jLGQU7B4dzrjTEp1NjmWFvV8FTpU6QhjYGzmL78S7+3TlgMGVh6oq0mP8AEdtVqCnTc88AnOLnFx4nluWYi13snbnbu2zTETFFvq7lwJBkLBYsV2Qe+N/aYzFNoM/uO4Jzi4kneeX06jqbg5p1CwmNZXEHR/h2WKxbKDfF3AKrVfVeXvOvMQSCCCsPmZHVra+ap1qdQSxwO0+rTpiXuAWIzT4aI+ZTnOcZJ15o1zmmQSEzMcSz4rvVNzZ3xUv0K+lmflFOzY/DS/Up+ZYl+4hvonPc4y5xP/XZ/8QAPhEAAQMCBQAHAwkGBwAAAAAAAQACEQMSBBMhMVEUICIyQVBxEDBhBSMkM0JScoGRNDVARWBiQ4OQobHAwf/aAAgBAgEBPwHyYEHYoEHY+yR7C4DchAg6jrSArm8q4c+yRypExKkT1nGqMRTDn6GdFiHHOiXhtv2VTfFNlkvBPj4KuazajO32S7ZVmPc7v2sA1WELywyZE6fx1eMp2p2UMaIe510aR/4qDbX1B4rFn5+CTFqcOzIDpVAk0aZPCfQLnl16EUmdp3KrV3PDgNBYCmzYPRPD7jf2j6w0JoOloj4tMhUn3DUi4brHOIqfosx3w/RYY31Q10R6Ki4nDHWIkSqXfpQ2088rQAC05126ex1N98iSdOdVQDQzQzyfj1alNzq9J42CqCuHyyCI2VOnVpMaBEl3aVem5+VHg6SsSys+A3u+Ko5kQ5oEbR/GChUmqcw9rZHD1ctjc0yCi0OaWnhfOtgGmHRsVTYW3F3eKr4dz33CO7C6LWg93UQqTLKbW8BWkAwdY0Rw9V1pc8TDv910R8RcO4AgIACqUw8beiFBwb4XHeNExgYFiMKarpBH5roDv7VTwdRjrhbKbSApZc+CbQfLL3yG7CFlfO3k+nwTqN7iSfCB8FRo5cyZn25ZWWVllZZWWVllZZWWVllZZWWVllZZWWVllZZWWVllZZWWVllZZWWVllZZWWVllZZWWVllZZWWVllZZWWVllZZWWVllZZWWVllZZWWVllZZWWVllZZWWVllZZWWVllZZWWVllZZWWVln+u3vYwS5wHqm1qTzDXtP59TMZfZcLuOo+rTZo54HqUK9EmBUaT6plRj5tcDHtdWptqNpk9o7eXfKn1DPxrE4SkyhmUxa5onRdNeKWGMAl+hWIxLqVSi0AdsqpjK+e+jTpBxCZU+mgOpAOs1KdisSS806PZbz4p2O+iis1usxCdjcQyx76IFMrG5fS6F/cjVURgC8ZQbcNVRr20MRUbTaIcqeMqlpq1KcU7d/ium4gNFV1EZZ/VYp56Xh3sFxt0VLFVc8UqzACdoT8TiS94pUdG+LvFNxoOGdWLdRpCGLxIse+iLHcKtiniqKVFlz41lYbEuqPfTqNte3yj5U+oZ+NVsW2tSyaILnO0WKpGjRwv9h1WIxFOtXw1kkBypfvKt+FfzM/gQex2b0hz8ydGr+Xf5ix37HS/L/hYhodi8KCNICbRpM1awAqn+x4v8SdTdU+TWhu9oKb0U0gHPq3fcVcto4nCmDa1iNQYnG0TT1DNyr2GrW6S58g9loWFMYOt83f2tQr2ssOFqPuJ7ixDAzFl1UuDHDcLBtoGs91MvMDc+UEA7hBoGwRAO6saPshQN4UCZhWtmYEq1vAUA+Cgcey0ceyxszaJUA+CDWjYAK1szAlQB4IMaDIaEQDuEABsP6ikKQpCkKQpCkKQpCkKQpCkKQpCkKQpCkKQpCkKQpCkKQpCkKQpCkKQpCkKQpCkKQpCkKQpCkKQpCkKQpCkKQpCkKQpCkKQpCkKQpCudyVc7kq53JVzuSrnclXO5KudyVc7kq53JVzuSrnclXO5KudyVc7kq53JVzuSrnclXO5KudyVc7kq53JVzuSrnclXO5KudyVc7kq53JVzuSrnclXO5KudyVc7kq53JVzuSrnclXO5KudyVc7kq53JVzuSrnclXO5KudyVc7kq53JVzuSrnclXO5KudyVc7kq53JVzuSrnclXO5KudyVc7kq53JVzuSrnclXO5P/SKDUYPFZ7eFnjhZ7eEKjD4+bPrAbIvc7c9YPc3YplYHfzImFUql2g290yoW77IEESPMKtS4wNveUn2n4eX1nwI99RfPZ8ue65xPXjrtMEHy2oYYeuAT4JxGWG+PuKRlg8sr90dXdQRurgQIDvyTxLdjPooJ2Hsgjfq0Nj5ZX2b1aX1gVXWoEQQOzCe6q3eFSMwOF/jqv3h6dXD/a8sr90evVpfWBVRMu4TS5xAuKfBpFU2BvrChpqSDqq/eHp1cP4+WVBLD1i9ztytkXuO5QqPAiUHEGZRcTv1aIhnlrha4j3zRJAQ0HltZki731Fn2vL6jLT8PeU2XH4Lby8gEQU+mW+numUy70TWhogeZPo/dRaRuOsATsEyj95beabo0mHwXR+Csg8rI5KFFgQAG3+nZ//EAEMQAAECAwQGBwUHAgQHAAAAAAEAAgMRMhIhMZEQIkFRcXIEEzAzYGGBICNAgrFCUFJic5KhNMGDkLDhFGNwgMDQ0f/aAAgBAQAGPwL/AKhtLmkTw0NcWmRwPYSCsWDa3KT2yPa0lUlUlUlUnTMMJ9NGq0lSIkpATUj2Qe54DSodjfimNIuVl4APqm9RjPQSCAAnuvLpYprBtQEW8lddB4+n366K+94pag/pbiXHCGNikejSG8FC/rOjOu5U6xTO5Ma7BRIb4TBZExdsTC6Be68ANncg5rGyPkiG4SB0OeXtDvszXTGsOubNwxkoF78Dc7EaAxgvUZrwCWSUTnP1Ugus6S70Uuj9GJ/he96IZL3eo9WXjQLWAE0HiLYaaQBsX9Uf2hf1R/aF/VH9oTPeWwdhCa5gue2ahtOBK6tjRZaoMQCTnpkOE0TIvKiB7RbbgUTAHvLV66MCPfOxTejQ9lXYwml5kCLlD5igXEC4rXi6x80C0zaV1Ni+UvJWQ4gIfphWmmRTftOwQgzvIl9+snsvTuucRa2p7o7pMG7ao8E4Fk9DOB+iDbcnNvPBMsdIsuwEk2C2IJi5fKNGCnMzV5UFsRpAeg1gkOqXS/lUTnP1Uwi/pUSkXBWejQNUbVOJABb5Lr4TrEQbEHPe21ZubtloPIVA5B7EL1UGfeWGyTGsMjPFARGW3DbJQ4wdNmzyTetfYeE6xi9TY4hHpMS+I65k0Yj2HzPYs5gofMUW25XKwGl24prdswuts6ugfphBrReUTZL4nki98N33wHOaHEp0M0ickxzBIzTdUXtq0Mfs2q0L4brwU0OcSBgokR9z3iTRoZ6/RPeWPILBgJpzrN3VhEHrO8N1m5fKNEIfkKstAmVAM5uMQTXQ+JQ/RXS/lUXnP10w4EFoDt6HXEPaUIrmicR2q2Vw80bNkxCJFwEgNGttBCEN0J5s3AtvmF3MX9q7mL+1dzF/aodiE4S/EJKGwGhkk1zsMEXw3iy69Q+jgzIxVo0tRP2RcFfSLyoZPdtMgo0SNEHVSu7EHcULcrtyDmmRWDSrTyupulKWjqZNsykmvGIWDMkRJmX3wbLyOCuU3OJ4qzaNndps3Fu4qbOjQ2nerTzM6Jhd7/AXe/wF3v8AARJMzoxU2kgoWojjLeUHGI6YwM1a6x1rfNFwiOmcTP2JjFTe6astfIex3z813z813z813z813z89Nzj7WP8AmlhzWTBXdKTmke3ZYrLx7YAxK7td2pvbJdZZulP2msniU025zPhuH6/VUtRBb/snMOxWurdLfLRMw3AcFqsJ4IgQzMYo2GTdtCnEbZMsFJoJK7p2ibWE8AjZYStdhCg84TXNliqWoBwFys9VdZqlsWq0ngrPVunuVlwkVNsMla7CFC5lCA/Ep9U7RIBd05SI0TEJyk5pGibYZK12EeEIfr9dEt7Uw/lR/T0O9FF9EWBkztUV8sQhyq5wL5X+aa1zRIlNiAXzkU7mRZChiQKvGKhc4TWsljtWLM1ZdKfkj+kn8qlZm4p0Qt1QBcurY0TCe17eKYzc9B0pnYgx7QJoRBtxUy4WziqBZXWbQnuP2ZSRY1ou3r3jmh0sitalqENjRNOa9t+0J7Nx8Hs9froL9w+qA3NR/T0O9FF9FF4/2TuVDlXWxr7ppob0fb5IcyfzKLzlDiVD/UH1TSwy1l3n8K08zK/wk/lR5QovFOD2a225agl6Jr24FwUPmUPnH1TeZdbF4rV6P/AT+CmPUL3jcwrcA/8AwqL6JwiM1uC1BL0TntwPg+H6/Vd45WWY7kXOxKsH8MirT4uqPRP9FF9FF4/2TuVDlVmey/yQfEi3A8F8wT+dRecocSof6g+qZz6f8JP5UeUK+k4oRGvkd+M0XRnz/hMs027kIb3SOxWy+1LBBjTc36rqz+GRCtPi6oT5bkYb5X4IuY+QKkXT/ur6Tig9r5Hfii6K+f8AARsU7PB+JVR0zBWs4lYlXH2LiQtZxKxKuJ0YnReTpxPsariFrOJ0YlStulx0XLWeSsToue7NXnRquIWs4n/KepGSpGSpGSpGSpGSpGSpGSpGSpGSpGSpGSpGSpGSpGSpGSpGSpGSpGSpGSpGSpGSpGSpGSpGSpGSpGSpGSpGSpGSpGSpGSpGSpGSpGSpGSpGSpGSpGSpGSpGSpGSpGSpGSpGSpGSpGSpGSpGSpGSpGSpGSpGSpGSpGSpGSpGSpGSpGSpGSpGSpGSpGSpGSpGSpGSpGSpGSpGSpGSpGSpGSpGSpGSpGSpGSpGSpGSpGSpGSpGSpGSpGSpGSpGSpGSpGSpGSpGSpGSpGSpGSpGSpGSpGSpGSpGSpGSpGSpGSpGSpGSpGSpGSpGSpGSpGSpGSpGSpGSpGSpGSpGSpGSpGSpGSpGSpGSpGSpGX/h2pcVQ5UOVDlQ5dZslNUOVDlQ5UOVoeySqHKhyocqHKY3oiy5UOVDlQ5GQN3h53osCsCsCsCvkWBWBWBWBXqfZdwKwKwKwKwKPMnXHFYFYFYFP/7zzfchfdu8bEEXb0AB/wChcWCzOfiy8yVzgfXsmPD2yb5/F2J3+EHEG9TJv/3T+HYT27FN/SiDuCLQ4OYTOaHD2ifJdd1186VDZDdftl7RYIlho2r3fS7/AMyAa09bavPYWSXBg3bVqxHtKdMz1cfA+sfRUFSwPno1iqCr5jQdVxliQvylFowCfwQnicAFZkQ7cUXFSAKtFGQNyAkSdwRuvGwrq7AnLcrJhH0TCNyvN/kqCpC4+atOwQaWubPfokWOn5K20SEkJtcBv0WZOxlopdLegQAQfJSdCBPkiYYLTLBXq4Eq9pCm0zVooyBuU3GQVwcVrQ/7oGCxuGKBfcdqpdLegQg2y686C52CALXNntPgAuiNN5UhDv8ANEDDEJjjuXm4qy6U8018OkojcU9t1hxxT+Kcn8EyIyU2pjj+IJ6dyr5gonALr2SpvmrR2zmv+I/5i9AoXKi575T2LVHqiAcChLG4qT5TbuQXyhBu9qbBfLVUPgjz/wB0V1JlZO1EnAEqNGcvlKAY0nfJe9YUXsEpX3It3hHmCicEWrWv4le6x/hXjYnowWykmt3JnMEA50lIHzCDHgaqbwH3+5s9WcpK7HahyqHwXB6iudDtB2BTf1FE9Ezin8U5P4LWcmOOAcnlpmncq+YJ6icqJ8irH5Z+qafIBQuVPc9tq9RCRK0bgoiZyhROZDgvQKHwXyhQ7TpXIn8y1SofqmwhiXJzdzV6FauJKc55JUTkQ4FHmCfwUxibk605Phm9rgZFDgU61hJe6mChbM3JnMFb/CE6H6hRE3h9/nn0DlUPgnoF9zAmAfiUT0Vi6TSiGyVk4eSc47U4xRdsTbrtqtMp2hO5U6XkUJT62adPGwmN89D2+ah8qJldOYK+ysJkokfZCLjtK+yp4kprdwXyhB8TDYEZi6aJhjUUP1Vv8P1UTlXylN5lE4qLylDgU6XFXT62aG8SmmdXPrZojbs4r0KeptkpXIOlcEQdq4fyjIXlAeCMECJYynuTwZXHEbVePZw9vDTgsPZvV3ZTlowHsYLDTeFcPBbpkX/6ofesZ8FqszWMlW5VFVFd47NVTWs3JX3KYPirWK92PUrWdPs9UyWuJrVPieUPNTJn29ylEzUwfEc3Lc3d8HdhuV2XiGZUz8LNpXn4ftFTPw4cFPbtHh78ow+JmgRh4c6sevxdg4HDw2XIk7fjAdu3w0GbsfjZbHeGSUXb+21WkqR7drvDEt93bxFE49u5u7ww1va3LuynCxii7f28t48MO7W4TetisRoUjvRae3YfPww/mPZarZqbmyGi5z19pUTVt0KUgpAKdjRqiam5kh2Y8Lu49lE9EeIQCkFKa2pzRPBP3p3WYK7aE7gn+nZt4eFzx7KJ6I8Qmcw0YfytUkItKm03prjim8E/gn+nZt4eF38x7KJ6IyG0aO8K7woF2KYfJaoTWlBzdyeCNif6dmPC7+yePJNYG3IS2jQSdgRYWXJg8kCwX2U21igBhK8K2E/07Jg8/DAdvHZTGKoCtO0WmqkKbsVLEK5oUzijZ2otIEuyHl4YnuPx73enhgjeiPjmjwza/F8aNwv8NEbdnxt+J8N2xgcfi5nAeHC04KyfiQ0INHh3z2KRx+Imaj4f/MpEX/C3K06r6eIfPepOHwcmhTN7vEcnBTbePgZ4BSaPE08Ct47XCQ81M3nxVrNWq9YT4K9h9m5pVMuK1n5K5vjDAKgKgKkf6XZ//8QAMRAAAgECBAUEAgICAgMBAAAAAAERIWExQVHxEHGBofAwYJGxQMEgUNHhkLBwgMDQ/9oACAEBAAE/If8AyGlGZ3BPcv0BikS24SE11cuOgmsxof8ANJvBDRin/FPqvgNhNhNhNs4xBWqZ8GsMNEpJom0agmjbRKRg0NNZMhxMU9FNhJpVkJHLaWZN+d1+ChgJgZEzscCHExQUMWhk50qGMbF4OYZpf0I5CKMn/eqoli/qJiu2FQVQ+chJJ19VjGDqVYwJSmttawpE+GXhXX0EFaunNex+yvSKvhoGk8IM3CvvMbKCX0DFDunj4MqBuyFxGg+Z53UISG23CSICPqfDRX6HnX8ki3sYdhurMnk1bgmFliPIXFJEr7v4SSCS/VZQX0R2EYmDGZG9OhYozB8QmviMFACaBH8+rgRq8KA2qiS+r9FjCrUqYrhxPEWNqP2RKEZryirkyuXzGNLZctJxPCarGcxrzbbRyKxkX+3/AHqH1PgOhKzjQ8hWJ7xco2aN1LjkxWAixnkPCHraXkL5cUZzPE1MoaqlcjuMmo3ljd6jbc/WEKY1PCPO6hCY005TRrYZomdXYwEes22SsB7G35mVH2WeTRcX+I0/h24yN1mDFQJaIzMCs3G4KqaipTXERDt0k3i5/wADwyvRjJ3eghh25Z+/R8fquHGNnqVJkiipoqg5jqi6DTJhzNtYFwfOAdCQgLhV1W5Ej3yol/cT0TmchuUvg1jISBdCFmTQyo8w4TaTzJMwP4MYq4h4VMEqJjOci/PgyXLJQFpPWD0+njbWclMqc9ec5HTeDVWqjKFKwuoh/Aa5kx61o/gGV5HVxwkOLX0HxFaTpFKDFkseQ4ywCFk83wWZQvnTCfgIIzIGgaBkXWksFRaJzV4s9JJ/lxFLv/gUXz3dkOPxZIpat/Q6HLZ5jUB2hP6HEuMPQanxQ10qK1K0qDQxghymiOt7UrlvLRcjmgmccJSoOFzCIK5ZU4G/v8j8RNRi/wA/3CNEbxTNSJmTZprBomCdWkSWVbanHxxiR83o+OK2Jo/o5cEJjTTlNCRxEoPrMctvhh1UUIS1Vg04ZjiUqRwxrhjDSi1iK0xzEoGENLG2223LePFaY0jlNCO8yVMhvcb+9NP4JklAv4KUpLiDGr4I2kFonwSMG+CbWD4NiSbQsvflgsFgsFgsFgsFgsFgsFgsFgsFgsFgsFgsFgsFgsFgsFgsFgsFgsFgsFgsFgsFgsFgsFgsFgsFgsFgsFgsFgsFgsFgsFgsFgsFgsFgsFgsFgsFgsFgsFgsFgsFgsFgsFgsFgsFgsFgsFgsFgsFgsFgsFgsFgsFgsFgsFgsFgsFgsFgsFgsFj/hZy66coaM3yidJuo/nHCsS5wRSscSow/mheWJLmy9+UXvyhChm4xX6HMUvKx/LBJSkcHBMPbfg3CQ6v8Akqslis2scrk9UNciIzUiOF+4NkStLxhIxtwEYCPahRHP0SR4CEULCISkTS4uUjTTh4kcfMTIN0fJw6YEf1E8zqLhZuNeR4LFvqaaD8rYVQPGnKxhIwrBq4YDM2jIWQrXIiFzFHbxCjbbUXIkiLlwQmG3glUoSTEwmsU6cKUDlH2ShN1HBZCtcjvxr2h4Nw8RqbIzsRahux49hYOZ41+HziXGhgwncHYTMNKZsUIXUyFo51A7v9IrcUnOpLqatNaMWEvL7xsklP4G+v8ABlbJHaPo8+5EcdLihBikBAtkVnBCoMqic8xrDTHhmuFMmmWhb8YeY7o+ciAmqwzgg9YdbMR3L7ggEvkI+1YGw0QJa1JYyKs4IV5hTIqMeaXT2f4dw8RzJRhXjzOz/QsHM8a/Bdm+h3H7OwkQZVJwRBUlEnCHbzvP0eJ1PCa8BJF5w7HgQwwCDG5Po8+/BMel+hTty1SWlnodipncvonRxF236My01Q8ErjbhDWsA6fKfZiLT6gk0onzu495SUk5Dvwqy8zrHLxekSWWl9ez/ABbhS17SKenlV1buM+qyxFdWjz0FUPWiPsOnB4nhu3fQ8O52E18pcyJs1FSBWFkHgWR4nU8prwk8a3HG5Po8+/BKOR7Lj2hGCgKuLGdBnvVYwS2Fy90K89oQSysRhAdVfTGrHYQQxNVrkPYiUs9dCP1iYaI2aScasxUml/yIpoMFDEBljMM/VYsY9npKhKXM3l8Z8k9U4O5s5J1DcuZiguTgbbctyxYBtcnA8Q2+Y6l5ZwMZ5g5G1Q3LmLDLk4MRLUJXJktOZqPHDm540IpaSLANrk4G1TbfPh2VnAznmDklqqY3xLI1ZJLtEuDBNmnqhHCK7koRS58FcLLRMNZY3q3PDsIOBnPMHP8AxPbONnGzjZxs42cbONnGzjZxs42cbONnGzjZxs42cbONnGzjZxs42cbONnGzjZxs42cbONnGzjZxs42cbONnGzjZxs42cbONnGzjZxs42cbONnGzjZxs42cbONnGzjZxs42cbONnGzjZxs42cbONnGzjZxs42cbONnGzjZxs42cbONnGzjZxs42cbONnGzjZxs42cbONnGzjZxs42cbONnGzjZxs42cbONnGzjZxs42cbONnGzjZxs42cbONnGzjZxs7/wCO1WE2lGFzyEeQjyEeQhNoPJ5nkI8hHkI8hCeppS1W38bAJv4PIR5CPIR5CHpbUQqYMJxkeQjyEeQij5Rjf28rcev2NuNqNqNuF65m3G1G1G1CNJK/jee0NuNqNqNuFamTF3HI2o2o2oUlTVF/7nwM6V0SHRN5meQnKT96twVUyNDYUTV5IShJae9cSEsF/wDgfXdE3j3YglCatwdu5H6WR1m2izn8GVMSp09JPdKalq3tCLMkVK3zZjzb+hhuWoglTN1EkLQ/oxTWp276/kzTKWmfxwrm9lm+Mv5ZSCeNsRKrnpbEVURzsz6DHSM41CXy2x1ramGcNex9cHkxOV80VFbMFwJcN5LMeW/qh7HU4CadUJ1I2hDzzehR0JN6ETzPNuJaruBjlEgSU2loPK1pTUj62pSpcdxlGNyap1gqRjkCo5Ti2CCVnIWnElQhrE4j9qXRUb+hvI9EPDKB2IwcELRlNcKpUdpNurgUskYOqCrEDQ1UtDWODU209XEVQWtWJgQWkdBjKSZ0gaI20JYsYxyOiGH+2FGIHdbalKlxuqkJqQo6jHX6EVOyLwOTgGpRXBNhiNPVw40GISmpTEWkQss+DAIQdy0MD2BDTsZDIlBVWIaXgXUHYsdY3UPA8pKMtdLdhs2SPW9LqQZNqMw9DzQ+j9nm3MTV0ZGsm0U0wPoHmXMbggrJRBNCNINhyenoQlGH6ztAlmMjqTGdaHUqiKbHS8UOmAoKRscx2C4JU/BEILBNRnoPPJnegkE1TXyYqZYC2qqGSpVc/wDRgAlYTPKHBOO+C6EALJzEPyZvbgnsn2PY4eKejEOZyCtCOGMBarQzXNE+iI3mltvJFYJgkec1EImeEkmvWGZUHaI9I0ufkv7+WNUGTqL5k3UMdp+2d0+2PztRgUxZbwbNfB3A82x2v6Po/Z5txBhNqizMAANiyKU+zzLmMLKGckdwIqxiXWgsrX/IJYxTnQ7QVpJlHUjS5dFHcfo8lod2OwcG7KeJzHeoWsrJ9JkXNreuqMXlkJ3jKb/QlHmTzMAkl0QJ0FLMXdipLWCZHgdDzuoyhnFPsfaLKtCUQx1bnmRG0N1k8loMtZmlFKshWqXMVTrD6nnNR0d1wLSMqOm4eLkdr+v79l5s+HYftndPtkFz19Dwsh/op0JIl8PgDU6TqMCgBblyS0VUwmIpOKUk9Bxx27UKgmrnTBUpypof6PMuJ5JacHISr2UnyI+C7HZw08VHJ1O1EokvuDwoTh1GrihHaf0jIdMjgwxkT+Ei1AjxOYmosGt/octBVWkDusoOfgx+WRNPhg4GhAPOsdh+uBoeDgLZJaahyEilZTqPmJnfscqxMeSeQYXhQ7FfY01kRUbJLdKoybJ8y8xGEEhlC2qtngg7iq4LIWyJL4/v4Wi4QnkuELRcOhCWRC0RGh8DllZWRUlmTgZxZCGAD5iShJLlwpoly4RuYTrHCFouELRcY0PjjGh8EaHxxhaLg8AT5ioES5EJ5HThTRIhPIpoly4QtFwr0J1jgluUp2XCFouEaHwQtHxxwAfMWCFy9lNSmhCrlGFv+0PQSySNeurhJlvkRiXzDZj84kYK6iwnyD9zIVw2MdN7iqE1b3VOkocpCDyWemaS1rFNi65iGjOmfuZtI23CEKa5ZGmv66A2aazRAVkFRJp5r3G2OoPI8Gv4c4e4SV656PcPx3WpNvktPxUKI0afXFe33FtPsaemtPx2Iw0RNg6Ht1CNt0Q+h4MfyURcM1qh+csp9uRKfH8tWP8AY9tpbZIeVLafy6qqxJswU9tIVu/NVW8jr7ZU8wSGPs0+tI0DSowIaay9ZNpprFVLmL2xMavrv0fgJI7mn59sS6ZT8+qwhG28kUpFsyrVQezUS9eOsvbHLcL1XTLasypM8qgZ1zIyGWN9evy6+2Jn4T6UnNDGCYG5wbw87NiGH1/Zj3WS/wAl/Eci8028iUHj54NWnshqcRn6UxXQeWW9rPAxV3pdtwQYgxbS+RDVzeo9uza0R50VvDZYCS9CgahPnX0SBM7rw/wL+m8vs9rPAoTd6XbcEPCa8G9tzqH1XPkQzVFIwY1pcV3wL+mkLt9rpCPCfS7YTEMEJpw0+Ho1F8Ba1jdh33sh6SlEBLiED4SeU8C/pY0MNZe1+fHPpIvEJyLx3GekOpwX5oEDxZ6QKeaTdyc4VubHd86ayQ4tAKKcoueJf0r0L9+2PMiPSWHwgoayjwyvBYZUo0nGh0sRjGixyCHcfHyxhZYySNael8v+2I78/Uei6e2EP8EaHPcU4/O1bivN+2aJw+35vXI9tdf3MiGm08V+ZU0z37bpF+x+XSTX5+3FwyyHzAyeq/JRzLZu4e3YfgmIf1wn47BJKW8BHNC1vb8zVEwYzxk/FYySS3kRPcOVfRcB0HHr+GqzGIuoae42uYiQ/b/g1tz2dZh6+5sHXETLSvL1cIuKCH6l7qwtb1zMa5WZhSFhp6DpjxxMXfTjQph/Orq/eDdj8Q3Y/GJGHxiTgjp/1dn/2gAMAwEAAgADAAAAEPfffffffffffffffffffffffffffffffffffffcPP8Ab37X33/f3/Lb3HnPX3331RaCKjb33333333333333333333333333333+zJF33h/Xj09YT/hWiPTX3331R6Pc/f3333333333333333333333333305tybVuD08MLboJaH3wUBXU/wB9/wD/AP8A999//wD/AP8A/wD/AP8A/wD/AP8A/wD/AP8A/wD/AP8A/wD/AP8A/wD/AP8A/wD/AP8A/wD/AP8A/wD/AP8A/wD/AP8A/wD/AP8A/wD/AP8AAAAAAAAAAAAAAAAAAAAAAAAAAAAAAAAAAAAAAAAAAAAAAAAAAAAAAAAAAAAAAAAAAAAAAAAAAAAAAAAAAAAAAAAAAAAAAAAAAAAAAAAAAAAAAAAAAAAAAAAAAAE+AAAGAAANLCAADAAAAAAAAAAAAAAAAAAAAAAAAAAAAAAAAAAAAAAAAAAAAATC7v8A3CvEqh7EVBlffARbQAAAAAAAAAAAAAAAAAAAAAAAAAAAAAAAAAAAAAAAQ+6aU1Mkr698snxzB5H9QAAAAAAAAAAAAAAAAAAAAAAAAAAAAAAAAAAAAAAEU0wsQYYwQQI44gQVYcgQQAAAAAAAAAAAAAAAAAAAAAAAAAAAAAAAAAAAAAAAAAAAAAAAAAAAAAAAAAAAAAAAAAAAAAAAAAAAAAAAAAAAAAAAAAAAAAAAAAwwwwwwwwwwwwwwwwwwwwwwwwwwwwwwwwwwwwwwwwwwwwwwwwwwwwwwwwwwwzzzzzzzzzzzzzzzzzzzzzzzzzzzzzzzzzzzzzzzzzzzzzzzzzzzzzzzzzzzzwAAAAAAAAAAAAAAAAAAAAAAAAAAAAAAAAAAAAAAAAAAAAAAAAAAAAAAAAAAAAAAAAAAAAAAAAAAAAAAAAAAAAAAAAAAAAAAAAAAAAAAAAAAAAAAAAAAAAAAAAAAAAAAAAAAAAAAAAAAAAAAAAAAAAAAAAAAAAAAAAAAAAAAAAAAAAAAAAAAAAAAAAAAAAAAAAAAAAAAAAAAAAAAAAAAAAAAAAAAAAAAAAAAAAAAAAAAAAAAAAAAAAAAAAAAAAAAAAAAAAAAAAAAAAAAAAAAAAAAAAAAAAAAAAAAAAAAAAAAAAAAAAAAAAAAAAAAAAAAAAAAAAAAAAAAAAAAAAAAAAAAAAAAAAAAAAAAAAAAAAAAAAAAAAAAAAAAAAAAAAAAAAAAAAAAAAAAAAAAAAAAAAAAAAAAAAAAAAAAAAAAAAAAAAAAAAAAAAAAAAAAAAAAAAAAAAAAAAAAAAAAAAAAAAAAAAAAAAAAAAAAAAAAAAAAAAAAAAAAAAAAAAAAAAAAAAAAAAAAAAAAAAAAAAAAAAAAAAAAAAAAAAAAAAAAAAAAAAAAAAAAAAAAAAAAAAAAAAAAAAAAAAAAAAAAAAAAAAAAAAAAAAAAAAAAAAAAAAAAAAAAAAAAAAAAAAAAAAAAAAAAAAAAAAAAAAAAAAAAAAAAAAAAAAAAAAAAAAAAAAAAAAAAAAAAAAAAAAAAAAAAAAAAAAAAAAAAAAAAAAAAAAAAAAAAAAAAAAAAAAAAAAAAAAAAAAAAAAAAAAAAAAAAAAAAAAAAAAAAAAAAAAAAAAAAAAAAAAAAAAAAAAAAAAAAAAAAAAAAAAAAAAAAAAAAAAAAAAAAAAAAAAAAAAAAAAAAAAAAAAAAAAAAAAAAAAAAAAAAAAAAAAAAAAAAAAAAAAAAAAAAAAAAAAAAAAAAAAAAAAAAAAAAAAAAAAAAAAAAAAAAAAAAAAAAAAAAAAAAAAAAAAAAAAAAAAAAAAAAAAAAAAAAAAAAAAAAAAAAAAAAAAAAAAAAAAAAAAAAAAAAAAAAAAAAAAAAAAAAAAAAAAAAAAAAAAAAAAAAAAAAAAAAAAAAAAAAAAAAAAAAAAAAAAAAAAAAAAAAAAAAAAAAAAAAAAAAAAAAAAAAAAAAAAAAAAAAAAAAAAAAAAAAAAAAAAAAAAAAAAAAAAAAAAAAAAAAAAAAAAAAAAAAAAAAAAAAAAAAAAAAAAAAAAAAAAAAAAAAAAAACAAAAAABAAAABAAAAAAAAAAAAAAAAAAAAAAAAAAAAAAAAAAAAAAAAAAAAAAAEMIMMAAAMMMMIAAAAAAAAAAAAAAAAAAAAAAAAAAAAAAAAAAAAAAAAAAAAAAAAAAAAAAAAAAAAAAAAAAAAAAAAAAAAAAAAAAAAAAAAAAAAAAAAAAAAAAAAAAAAAAAABMIAAAAAAAAAAAAAAAAAAAAAAAAAAAAAAAAAAAAAAAAAAAAAAAAAAAAAAAAAAMAAAAAAAAAAAAAAAAAAAAAAAAAAAAAAAAAAAAAAAAAAAAAAAAAAAAAAAAAAAAAAAAAAAAAAAAAAAAAAAAAAAAAAAAAAAAAAAAAAAAAAAAAAAAAAAAAAAAAAAAAAAAAAAAAAAAAAAAAAAAAAAAAAAAAAAAAAAAAAAAAAAAAAAAAAAAAAAAAAAAAAAAAAAAAAAAAAAAAAAAAAAAAAAAAAAAAAAAAAAAAAAAAAAAAAAAAAAAAAAAAAAAAAAAAAAAAAAAAAAAAAAAAAAAAAAAAAAAAAAAAAAAAAAAAAAAAAAAAAAAAAAAAAAAAAAAAAAAAAAAAAAAAAAAAAAAAAAAAAAAAAAAAAAAAAAAAAAAAAAAAAAAAAAAAAAAAAAAAAAAAAAAAAAAAAAAAAAAAAAAAAAAAAAAAAAAAAAAAAAAAAAAAAAAAAAAAAAAAAAAAAAAAAAAAAAAAAAAAAAAAAAAAAAAAAAAAAAAAAAAAAAAAAAAAAAAAAAAAAAAAAAAAAAAAAAAAAAAAAAAAAAAAAAAAAAAAAAAAAAAAAAAAAAAAAAAAAAAAAAAAAAAAAAAAAAAAAAAAAAAAAAAAAAAAAAAAAAAAAAAAAAAAAAAAAAAAAAAAAAAAAAAAAAAAAAAAAAAAAAAAAAAAAAAAAAAAAAAAAAAAAAAAAAAAAAAAAAAAAAAAAAAAAAAAAAAAAAAAAAAAAAAAAAAAAAAAAAAAAAAAAAAAAAAAAAAAAAAAAAAAAAAAAAAAAAAAAAAAAAAAAAAAAAAAAAAAAAAAAAAAAAAAAAAAAAAAAAAAAAAAAAAAAAAAAAAAAAAAAAAAAAAAAAAAAAAAAAAAAAAAAAAAAAAAAAAAAAAAAAAAAAAAAAAAAAAAAAAAAAAAAAAAAAAAAAAAAAAAAAAAAAAAAAAAAAAAAAAAAAAAAAAAAAAAAAAAAAAAAAAAAAAAAAAAAAAAAAAAAAAAAAAAAAAAAAAAAAAAAAAAAAAAAAAAAAAAAAAAAAAAAAAAAAAAAAAAAAAAAAAAAAAAAAAAAAAAAAAAAAAAAAAAAAAAAAAAAAAAAAAAAAAAAAAAAAAAAAAAAAAAAAAAAAAAAAAAAAAAAAAAAAAAAAAAAAAAAAAAAAAAAAAAAAAAAAAAAAAAAAAAAAAAAAAAAAAAAAAAAAAAAAAAAAAAAAAAAAAAAAAAAAAAAAAAAAAAAAAAAAAAAAAAAAAAAAAAAAAAAAAAAAAAAAAAAAAAAAAAAAAAAAAAAAAAAAAAAAAAAAAAAAAAAAAAAAAAAAAAAAAAAAAAAAAAAAAAAAAAAAAAAAAAAAAAAAAAAAAAAAAAAAAAAAAAAAAAAAAAAAAAAAAAAAAAAAAAAAAAAAAAAAAAAAAAAAAAAAAAAAAAAAAAAAAAAAAAAAAAAAAAAAAAAAAAAAAAAAAAAAAAAAAAAAAAAAAAAAAAAAAAAAAAAAAAAAAAAAAAAAAAAAAAAAAAAAAAAAAAAAAAAAAAAAAAAAAAAAAAAAAAAAAAAAAAAAAAAAAAAAAAAAAAAAAAAAAAAAAAAAAAAAAAAAAAAAAAAAAAAAAAAAAAAAAAAAAAAAAAAAAAAAAAAAAAAAAAAAAAAAAAAAAAAAAAAAAAAAAAAAAAAAAAAAAAAAAAAAAAAAAAAAAAAAAAAAAAAAAAAAAAAAAAAAAAAAAAAAAAAAAAAAAAAAAAAAAAAAAAAAAAAAAAAAAAAAAAAAAAAAAAAAAAAAAAAAAAAAAAAAAAAAAAAAAAAAAAAAAAAAAAAAAAAAAAAAAAAAAAAAAAAAAAAAAAAAAAAAAAAAAAAAAAAAAAAAAAAAAAAAAAAAAAAAAAAAAAAAAAAAAAAAAAAAAAAAAAAAAAAAAAAAAAAAAAAAAAAAAAAAAAAAAAAAAAAAAAAAAAAAAAAAAAAAAAAAAAAAAAAAAAAAAAAAAAAAAAAAAAAAAAAAAAAAAAAAAAAAAAAAAAAAAAAAAAAAAAAAAAAAAAAAAAAAAAAAAAAAAAAAAAAAAAAAAAAAAAAAAAAAAAAAAAAAAAAAAAAAAAAAAAAAAAAAAAAAAAAAAAAAAAAAAAAAAAAAAAAAAAAAAAAAAAAAAAAAAAAAACAAAAAAAAAAAAAAAAAAAAAAAAAAAAAAAAAAAAAAAAAAAAAAAAAAAAADKAAAABAABCAAABAAABFAAAAAAAAAAAAAAAAAAAAAAAAAAAAAAAAAAABEEFOPLFJEMECKADDCMHDFEAPIKEAAAAAAAAAAAAAAAAAAAAAAAAAAAAAAAACNGJGOKEGFMLIDPKLBIABKIPHCDACAAAAAAAAAAAAAAAAAAAAAAAAAAAAAAAAEIEIAMMAAAMIMAIIMMIIMAAEIAAAAAAAAAAAAAAAAAAAAAAAAAAAAAAAAAAAAAAAAAAAAAAAAAAAAAAAAAAAAAAAAAAAAAAAAAAAAAAAAAAAAAAAAAAAAAAAAAAAAAAAAAAAAAAAAAAAAAAAAAAAAAAAAAAAAAAAAAAAAAAAAAAAAAAAAAAAAAAAAAAAAAAAAAAAAAAAAAAAAAAAAAAAAAAAAAAAAAAAAAAAAAAAAAAAAAAAAAAAAAAAAAAAAAAAAAAAAAAAAAAAAAAAAAAAAAAAAAAAAAAAAAAAAAAAAAAAAAAAAAAAAAAAAAAAAAAAAAAAAAAAAAAAAAAAAAAAAAAAAAAAAAAAAAAAAAAAAAAAAAAAAAAAAAAAAAAAAAAAAAAAAAAAAAAAAAAAAAAAAAAAAAAAAAAAAAAAAAAAAAAAAAAAAAAAAAAAAAAAAAAAAAAAAAAAAAAAAAAAAAAAAAAAAAAAAAAAAAAAAAAAAAAAAAAAAAAAAAAAAAAAAAAAAAAAAAAAAAAAAAAAAAAAAAAAAAAAAAAAAAAAAAAAAAAAAAAAAAAAAAAAAAAAAAAAAAAAAAAAAAAAAAAAAAAAAAAAAAAAAAAAAAAAAAAAAAAAAAAAAAAAAAAAAAAAAAAAAAAAAAAAAAAAAAAAAAAAAAAAAAAAAAAAAAAAAAAAAAAAAAAAAAAAAAAAAAAAAAAAAAAAAAAAAAAAAAAAAAAAAAAAAAAAAAAAAAAAAAAAAAAAAAAAAAAAAAAAAAAAAAAAAAAAAAAAAAAAAAAAAAAAAAAAAAAAAAAAAAAAAAAAAAAAAAAAAAAAAAAAAAAAAAAAAAAAAAAAAAAAAAAAAAAQz8SDgQAAAAAAAAAAAAAAAAAAAAAAAAAAAAAAAAAAAAAAAAAAAAAAAAAABF0AQQQQcgQQAAAAAAAAAAAAAAAAAAAAAAAAAAAAAAAAAAAAAAAAAAAAAAAB6QQQQQQQQQYwQAAAAAAAAAAAAAAAAAAAAAAAAAAAAAAAAAAAAAAAAAAAAABcQQQQQQQQQQQdAwAAAAAAAAAAAAAAAAAAAAAAAAAAAAAAAAAAAAAAAAAAAAFwQQQQQQQQQQQQZgAAAAAAAAAAAAAAAAAAAAAAAAAAAAAAAAAAAAAAAAAAABYwQQQQQQwQQQQQRAwAAAAAAAAAAAAAAAAAAAAAAAAAAAAAAAAAAAAAAAAAAFwQQQQQR8wQQQQQQSwAAAAAAAAAAAAAAAAAAAAAAAAAAAAAAAAAAAAAAAAAAFQQQQQgdMQwyAQQQQwAAAAAAAAAAAAAAAAAAAAAAAAAAAAAAAAAAAAAAAAAAJAQQQVvtcaHAAQQQewAAAAAAAAAAAAAAAAAAAAAAAAAAAAAAAAAAAAAAAAAANgQQQU9wxtDCAQQQcwAAAAAAAAAAAAAAAAAAAAAAAAAAAAAAAAAAAAAAAAAABQQQQQsksgU6gQQQaQAAAAAAAAAAAAAAAAAAAAAAAAAAAAAAAAAAAAAAAAAAEygQQQQQQQQQQQQQ4gAAAAAAAAAAAAAAAAAAAAAAAAAAAAAAAAAAAAAAAAAAAAwQQQQQQQQQQQQSgAAAAAAAAAAAAAAAAAAAAAAAAAAAAAAAAAAAAAAAAAAAAExAQQQQQQQQQQVQwAAAAAAAAAAAAAAAAAAAAAAAAAAAAAAAAAAAAAAAAAAAAAABQQQQQQQQQTQwAAAAAAAAAAAAAAAAAAAAAAAAAAAAAAAAAAAAAAAAAAAAAAAAhQwQQQQQ0AwAAAAAAAAAAAAAAAAAAAAAAAAAAAAAAAAAAAAAAAAAAAAAAAAAAA0G8JoAgAAAAAAAAAAAAAAAAAAAAAAAAAAAAAAAAAAAAAAAAAAAAAAAAAAAAAAAAAAAAAAAAAAAAAAAAAAAAAAAAAAAAAAAAAAAAAAAAAAAAAAAAAAAAAAAAAAAAAAAAAAAAAAAAAAAAAAAAAAAAAAAAAAAAAAAAAAAAAAAAAAAAAAAAAAAAAAAAAAAAAAAAAAAAAAAAAAAAAAAAAAAAAAAAAAAAAAAAAAAAAAAAAAAAAAAAAAAAAAAAAAAAAAAAAAAAAAAAAAAAAAAAAAAAAAAAAAAAAAAAAAAAAAAAAAAAAAAAAAAAAAAAAAAAAAAAAAAAAAAAAAAAAAAAAAAAAAAAAAAAAAAAAAAAAAAAAAAAAAAAAAAAAAAAAAAAAAAAAAAAAAAAAAAAAAAAAAAAAAAAAAAAAAAAAAAAAAAAAAAAAAAAAAAAAAAAAAAAAAAAAAAAAAAAAAAAAAAAAAAAAAAAAAAAAAAAAAAAAAAAAAAAAAAAAAAAAAAAAAAAAAAAAAAAAAAAAAAAAAAAAAAAAAAAAAAAAAAAAAAAAAAAAAAAAAAAAAAAAAAAAAAAAAAAAAAAAAAAAAAAAAAAAAAAAAAAAAAAAAAAAAAAAAAAAAAAAAAAAAAAAAAAAAAAAAAAAAAAAAAAAAAAAAAAAAAAAAAAAAAAAAAAAAAAAAAAAAAAAAAAAAAAAAAAAAAAAAAAAAAAAAAAAAAAAAAAAAAAAAAAAAAAAAAAAAAAAAAAAAAAAAAAAAP/EACsRAQACAQMDAwMEAwEAAAAAAAEAEWEhMVEgQVAQMHGBobFAYJHBkMDw8f/aAAgBAwEBPxDw1ksfSz0v2LJZ7VtC4m+8HQrWXE1gXvpNr+u2TTvNzHrHabU3TYjaGxHPoRIy0dwOqHafmIjfUbBidkABEUhUt+strrLUaxJrxAlj6AUSpfmfOBRUQYQS30FIaKhstla3GKPXOTOTOTOTOTOTOTOTOTOTOTOTOTOTOTOTOTOTOTOTOTOTOTOTOTOTOTOTOTOTOTOTOTOTOTOTOTOTOTOTOTOTOTOTOTOTOTOTOTOTOTOTOTOTOTOTOTOTOTMfvtA1YO0To7xr0O8YK0CWlPqgE6vj+qlSayp63jlDdmrLNii+6LuxOY7QjUaVLuyhvtWVGJTKelpKgZhKC7JtevaJXZOYK67Q1SbcTSe2OkKHicCnVY+K6zUFoz7f0LNbBP7T7kgsEsqGsAn3UUAcQ0xb8Sj6aCIftJRvW7E0X212lB1S4BKQ9yC21l8QgwAiXAcSi5RdyiUcShlHpR6U4lEANiUQAgOIgwA/cVkslkslkslkslkslkslkslkslkslkslkslkslkslkslkslkslkslkslkslkslkslkslkslkslkslkslkslkslkslksmRmRmRmRmRmRmRmRmRmRmRmRmRmRmRmRmRmRmRmRmRmRmRmRmRmRmRmRmRmRmRmRmRmRmRmRmRmRmRmRmRmRmRmRmRmRmRmRmRmRmRmRmRmRmRmRmRmRmRmR/0icFQC2VdY5gBcr/AMyD/viXNg5goURHygKgSrZ4u6EFV8tXqZCHnZl2jERSIjw+RREpQELGfb9omA5/7ReSqTx4KgFsEzs/4e40Cj0eTiIkKRpPHCgXs595R9o/PxoKgbrDaa1fyesZljvbXr2ZIPvpI+M0asLOs5SfChBaFDQ3fsYWQ+M/6Ut6URQ7rREIjkbijrt7o4RcyDAYGRNhajE4O7Ggkasb6auYjxlOnPxPzFF3T/BLIV9awc3MsUx30ddycQWq2n5n3H8HTT6vjBH/ADB6Qv04e9G0v+SIt6bUjtUm0sAQcvyEOYGt0fufM+4/g6SeAnjL+7K/16TrKKRj0HJA7ApGJiIbxu8m2V5MHZmbQ56aUbA8ZQBuIwGdi/n3trWyMpai/Xxou3c+fvCkbPjgAlIiQq9Do5z7iPUSqSV2lr4+ivICgW/L49pdaLGxAvt5FUAmySvCnHeFwnVU6ZYyMUhcptXyghZyNSqsDgQWww0v7SbMCGkCcCJkHK3/AI7P/8QALBEBAAIBBAECBQQCAwAAAAAAAQARYSExUfFBIFAQMHGRoUCBsfBgkMDB0f/aAAgBAgEBPxD2YWwTkmzjrWnwyHw2dUXARBE+KhBHZ+DuEJg/eYf3+A6gFnjFzYWXx6rPjoGhKFAfciJNZVaww6BgIOXWlGmWvAxvk/XCygFmvNeIHA0ISGvgEsRUV9EfKcy0GVunjWaQS9proRgFaw06kNE4bjpkoLh5mual51ZsdXWvtHgUN7iGUjWjXWSJSjQptEDwAvULn9QlHkhvRL1SNjE02rDb86iUNX83PErREvMiqcEpRu7Ju16RgNe40RdL6U8y+/Ytw8R9Ea/oRE4+K6uUMfSi/WBZUEHERULSzaIaMKlHyQl0hW2tjgie0NoqQEVoG58ftETbaLmm66sy0IAWFH/4C3MTASvoU1ttcvZXS2iSsGq1bN6wAmE/uWB1A2bWWnYULlhmt+lT7wSr1FGNZ8WOW7ETFANCjT45yZyZyZyZyZyZyZyZyZyZyZyZyZyZyZyZyZyZyZyZyZyZyZyZyZyZyZyZyZyZyZyZyZyZyZyZyZyZyZyZyZyZyZyZyZyZyZyZyZyZyZyZyZyZyZyZyZyZyZz/ADsUJWhVS4N4A+jH2+VehcXpdAQ8+bAGbv1TTs/GnGNjn278X/DFFdLqIywtftGfihuFMAVLKpb5bqFoPNcacRq/a5S7QTzrrGkrYtuJewJFXDe3aL1h0TsDdiugx52M1ywJ5uDDrbgEnm0NHEfgLbKFsPrUGHE1CWhBC7oNk9o/F/wysmBaS2hQVn3iMwVqVuk/Hf8AU1it6AgrhvJ/PkVZRIxZr6rCvhQDLpHNS0JUEczQAj6hCzRXRUSgGFioN1D7WKqgLdoQbmkm8bp8bftAlAzYggCAThgIAK4IEoF8zxC+YsW3KpoVpcVEgISLIos+FIgKYAAABKf3xRcXChZc65wVFgm5JC9QLiQB5CH0CcJD6AOA/wAiyEyEyEyEyEyEyEyEyEyEyEyEyEyEyEyEyEyEyEyEyEyEyEyEyEyEyEyEyEyEyEyEyEyEyEyEyEyEyEyEyEyEyEyEyEyEyEyEyEyEyEyEyEyEyEyEyEyEyEyE7KdlOynZTsp2U7KdlOynZTsp2U7KdlOynZTsp2U7KdlOynZTsp2U7KdlOynZTsp2U7KdlOynZTsp2U7KdlOynZTsp2U7KdlOynZTsp2U7KdlOynZTsp2U7KdlOynZTsp2X/CKNxMfCp/aw8ymy/fBH3XQ9bHPUMDDRNLzBEE9xAK6EUdD5R0FcAkE9wRNh+fmLU7oIgnt2l9351S25t7btG9YWC0a9ePINg+2fivr1YTOEjr8jODT2x0GfSCgC2KKCQIDCCuKHMBlRgK0CsUUE9L0fbPzH1UgHghQP7oI1owyKjZ+sAP3erN37PbDacepSQLdBlVC3mPUFTSVG6rMHtBdT1YNH7Z9Ia+kURGmFVZBUJCaslAOpRCuMirfTScuvtiWPz8FM8wAHB7bpDc3+d5h9PbkERj3G75inw3gAA9vRBpHbNeXym+OUAe4iCIkFt+yN0h6n6Rmy/ZABQe6IDUJxj6REcWBj4q4BQD/XZ//8QAMBABAAIABAQGAgICAwADAAAAAQARITFRkRBBwfBgYXGBofEwsSBAUNGQsOGAwND/2gAIAQEAAT8Q8fU+BAhd2WmrqUkIO5QweNmss1JZqcWmjALVYX6bIxjAdmBzNf5oUiwCxep/EAQNRT7LPss+yxMV3XFwP5iIiKM8yxJbE86OpbM86LpbERi1IIkHQXm/DSfNDhzDV/dLRLr111BMZ12xMjCOfuGXOWKrpqWZwzi3V4EAVvIoMdCV74U6asIYBnffOspMlJCLbuZ/naXDNQsorI6xpUQPPYzrh4IiDbjPzJZ6NsSBwVd9fEZxl55NeUsPui/9MqO88Lhhu7UZs1j/AHB5Bl6NdYgBNOFVBLi0BzZ5KCfeFoY9wFqsDj6Xof7Zhjjmf6FhbR1Nv6yium6nymqBmD3XBbuefNk7wcBPKr/ECDGrpaw33LIWZF8ecmGe1zbLg/AhrWWXFspJvEu3BE9XXAMwYQR0TB/78J7LhaUDhcoftLotH8mrqBLJTpzyAAyeWjN5+bgvaYpjY7AUHP1hNxEoKEMld/zHg8EeJMWYPzMNYSWWUW+UNZMc8uUZ1j48qy+Hc9UMObmDPXkwQB7nNQl61Jbblm8NeK8CMxzgVQee+U85ppUQBGuSgMtuhPj8DQx7kKRIelLJcomcCmtpQRrmA/8AZxWACgr0U/SX4kOaxawwL/AR6+M/rLLiKE3DYOZTFYyrs8qUKDWC/LD+hzfGfsmajxquFJ8LErhxaiNef43LlW6vct7ktnIwFf6lprbltgto8wXBmPXhFDlSubAzCqbVp0ix8GulyP8AMLeS/PVqiX+d6nLDv/PLNXcfGS87MxhswCB1CHdsHsmFfzKKY6gBMp116QerF3K5rhcDmW6jST94iFPhfEza9YT02hoMqm0WQMAChbmxBKxVWZOXqEulRbFgINlrwOG35E+N/AEPRy3JRLl9F1C7EqyVcvK5EQ+NMjytPeTwK6RHzmr89Po/gMYwVOmsFw9qx7TUj5Jid+J2wuDLsFpGir0+QR7yu9GEJVV5KGEEPZITdpfbCOVQ0gpLR+CivELVEFtj8yPVZexMVJPRHNJhYRQMA0EEJwmC30wUYXJNiUGlsorZK4R7K1qv8wcrNMnqqNVK0UjBAaUJZvMzjBLjL1LMolntFyIf7VA0HAx7kKRg1C7vKdr/AExUpXf5S9KYrVeAWElkvIZYiC2CzUgwCofMAuZ/LQeixcPoxUZc7weqxWyFS2q8Q/qQpElKtmQHsS2UGAGHNbOFV4DTAbMgHPvc+9z73ESbvFUpa8Gr/NIRVWAIIdHhbCHBajISp/ylySSSSSSSSSSSSSSSSSSSSSSSSSSSSSSSSSSSSSSSSSSSSSSSSSSSSSSSSSSR0VigsmubAv0/755Rxb+ZudNhUEYgxQrR/OiIb1Sidt9Z231mCN42Q0BApl66/kgVp86rhKrVcNUX4bdLFgXPZKF2A/uFEWtXqGTGxpevULhnUbGuZicgzxNLmDfnA3dbj2c3cBpgB3T3w61c8tiezYBbERAgaRKSNgWxAuIVlThWjHgctCMHgOfkb95n00VEQ0ulRoK7HjwffLCoIyYQhiHWHKYV6M8moytzE7Cyah9+DQBtAWrKkz3olR4TUBTNDvQuPibAKIDCCzyuDyVa3B5FTlbmIhYZNQ+/hD4U2ZB85n7iHou3T4H9Z8R+58L9XBNptxFRYIKNpb5nCNtw0ktfuc+7QIi2uD012Jbllxqpg65saI2eAMiwnakKsch4N1jKm6Up9Q4Q/BTdCANNzLGXHbtyCVhIcqJ8NefKyCYrCJZ7nuZLVsp/OHLDa9MCVwujpKmK/SxQSWzVMU5aNGcMf8bXNpmmvZRfSya45EISU5WmQH3VSMiS1ptDryPg/wCHNmSrzd90HJxxPV3wd+M/c+N+qPPwhO/aOEawTAm/JCDuWH8V4Z7FpnfdfEYCoQ7avC7wZqztQYHpw5+C4QeoxG2OIuGmhnvJfJXSysuA0Mb2p2Svf5o8DejD18eda0jOFD+lHBh6TIwR+U4DZKkLNJTzphUKXY0VUWe+0SBBWysgeD6ozHsw0qDrmay1Dl3lqwytOXjCGmeNHAaw+uyv1xVfhifIfpM2RwlFUFQjakJznK4g82Mdeol33XGHBUDv0H78WMSq9FwiWOVu+EGhU5IJcgUsgwA2wLSXKK57yI6rFjDGYrTpZKgkfP6qxRfexB+1gv8AaatFMI8K/K5IBhG7tXpMsxto0InJHHl6RZaSBgYO5vKBATTv654P0MwDCK4Wesr4Cg/JClSG6P8AtFzRBaSy9yP0iJCZqqxhXtUhi3NUrPOuLfpBCcyvpvPIzC0hlAaJCqVVVlORopAAI1DCKE0TiUtbJZ1GFe1SGrZqleCS2Ov+kCJzX/aCBAjmRG2ZFGp5tYocBarJEYUBuTx8BL1w8n3BGuuwXBRbfX/SDE5r/t/wT2am8s1N5ZqbyzU3lmpvLNTeWam8s1N5ZqbyzU3lmpvLNTeWam8s1N5ZqbyzU3lmpvLNTeWam8s1N5ZqbyzU3lmpvLNTeWam8s1N5ZqbyzU3lmpvLNTeWam8s1N5ZqbyzU3lmpvLNTeWam8s1N5ZqbyzU3lmpvLNTeWam8s1N5ZqbyzU3lmpvLNTeWam8s1N5ZqbyzU3lmpvLNTeWam8s1N5ZqbyzU3lmpvLNTeWam8s1N5ZqbyzU3lmpvLNTeWam8s1N5ZqbyzU3lmpvLNTeWam8s1N5ZqbyzU3lmpvLNTeWam8s1N5ZqbyzU3lmpvLNTeWam8s1N5ZqbyzU3lmpvLNTeWam8s1N5ZqbyzU3lmpvLNTeWam8s1N5ZqbyzU3lmpvLNTeWam8s1N5ZqbyzU3lmpvLNTeWam8s1N5ZqbyzU3lmpvLNTeWam8s1N5ZqbyzU3lmpvOz+k7H6TsfpOx+k7H6TsfpOx+k7H6TsfpOx+k7H6TsfpOx+k7H6TsfpOx+k7H6TsfpOx+k7H6TsfpOx+k7H6TsfpOx+k7H6TsfpOx+k7H6TsfpOx+k7H6TsfpOx+k7H6TsfpOx+k7H6TsfpOx+k7H6TsfpOx+k7H6TsfpOx+k7H6TsfpOx+k7H6TsfpOx+k7H6TsfpOx+k7H6TsfpOx+k7H6TsfpOx+k7H6TsfpOx+k7H6TsfpOx+k7H6TsfpOx+k7H6TsfpOx+k7H6TsfpOx+k7H6TsfpOx+k7H6TsfpOx+k7H6TsfpOx+k7H6TsfpOx+k7H6TsfpOx+k7H6TsfpOx+k7H6TsfpOx+k7H6TsfpOx+k7H6TsfpOx+k7H6TsfpOx+k7H6TsfpOx+k7H6TsfpOx+k7H6TsfpOx+k7H6TsfpOz+k7H6SpUqVKlSpUqVKlSpUqVKlSpUqVKlSpUqVKlSpUqVKlSpUqVKlSpUqVKlSpUqVKlSpUqVKlSpUqVKlSpUqVKlSpUqVKlSpUqVKlSpUqVKlSpUqVKlSpUqVKlSpUqVKlSpUqVKlSpUqVK/wDpnyo7CZt0+5n7mfuZ+5kUbLyME+5n7mfuZ+5nAZiZr9H8SQFHNUCz7mfuZ+5n7mQL6Ml0ItYn7mfuZ+5lEulOHLw8IArN94n3CfcJ94jBEQFW8+8T7hPuE+4QFQbKf4961T7xPuE+4T7xK9l8/oRLlTkrWfcJ9wn3CUKnNPD9Gko0lGko04UaSjSUaSjT+dGko0lGko04USjSUaSj/wCLCgKx/XA5CoNX2mEYABsQfGiCVMQQEhgVoo0SERkA8aoCkEgCgPQA/wDwPq7PO4KuD4rXnuYAXqqEths5MBqg/iO8sDQTAljiIjiJzH+hevfBf4i8c/bPCBr7KjzZbFnHPwv4APQvzDM2ugRMarYjCd/0fypYFmtFgBHLZa2jSlTyi5wH8XBbghSaVPJqiBuhrs9vAHM3+BkFqpZM3ytfCnNvIoB8DiF3KxVG3B4CwfVQB9HgYQQsS17ToKIbJ9au4gAliCI2OiRTbUAkMBzjgFZMcDmBbjefCwvBygXCjDLpqZhowCzE/h11CMy3KluTxgp12iDF0vUgw1zDol454vrq9YS0uWsk85LHdMi4+YvOR/8ANp5Los/Rj2DQLV0JTcS5Ab4MxwdaQZxT/wCiZiQtoYQEhEETJHESLy4+oQaLtohqGI0CVilj9kWRhaQwmFIi9UlUAqNAHNYt82UgcNabJLuvMhkCjmuE1AKoWMbkmaSpegYYnj7RLkYNCLY0lzYEtgTAGCSDA0ZWABXm4KGpx1YGErVLeAKRZVtAjRhUZm4+u4hS+oBD4WS2qWQzkALlZ+iOnONPuOSWd3aDYMvHVezkg1rXLJLNMY+XL4WFtWc6EgP0fy0rgP5f9OOKLZewjSmiS94qinJlJXa4CdDfV4KxUo9gukz0i2EZRBbbzXkjW2VglTXeQZlQy+JB0bGEZEjumUWJzq2Z3PVDXyQ3ESBerYqDKIUFdrhe3yHAKcC6C0Qr9OdvcgwLNskrq44nnx02vzCaMmJDVagNoaG8Ru6QjCo2DFc0nKrpRFhh0XmtUPBwYK3A7qrMVA1OTztZxM+P6H+fFYDC0uQwlQOndK41CQwnA+I/0llPN9bWwnwAFuFfn/346O+FjDYxzF7ERxEYFQGUM9l5MfL/AKcMCcBa52XSNcrVWpg0Zle5L3DYyHC6jCVgUdAxed7M5fB/pO+6eFu+aEyuF7NgMJVoc3HkQgrfStnAtUcGXqE+JLFpCf0mOBimvM8HslgGFTwRtxbVgPYC8gOOgAKiwkI7SjzM2Eo7ugCNDIyOAVQR86IcGiuHQ1gzIXwzgheCdfMlqyonHzY77o/zxmepAYpm4UEkYxI+vGZoj/d87c4RQcIMfVm74A1LD6oVEYe9ZARUbGYKN3GSsUYhMEsKjedRyZeGH2ucIe/kjsqMcyLNlUMTOct036XCsyjv0YvArAsvmSkraTxTIpYVcAf+MKKtQoIohVodABEMvuUgALwgZRE4KFhX+ggltlz6RhnILkDLOQIpGvmTbKnIDJ0Ax8KQmB+alfdRZuND1UMeF5PNEj7hbUOaBIGJcLxIGelQF9pXUsEkJsaQyfM4bBTmmsKTH/iqMYRkkS2hDqtPoMSsOH7Cmevk6ckH/wArQf5/Hv4zgqtR1QYAFARdt2hYAEQSkJ5gwyAIuq7Qs+pRti1fLMgh9EtcaymAUBoBIVTNAEQREElWs9IDgMk9ADwpbCdQDhZn6yCwAAAlGSDPqUACgAiCIhPqU+pQAyAOFja3qDwJoTQCQiiaAI5gMAMABoARBEQlWs9IBHAIZmU9ACISjInUAeFTB6QHghYOYHCjIHUAYglIT6lPrXESgtAMvad5CvBROAiJE1Lpp/7J1ZrLNfGKsoMVQl6D0hC+R5roTBu963EV9kz9TNl6ufAk41cJyJ6J/wBTcHVSvNGGDUvJQ+KqN3RzfQl5UdmEvivN/H5nkSSk8o8ItDubIPExwgFVleLc1l7RO5zfzshKSUymLpc/chPGsTxHVn5DmuhHePkB/psXpZmTMHw52fiE6XyPNRt+nj+q8zbJozQ9PD/SuGRzWhFK/Wf66E17mjBFZgajw6FQBVYmViIP7LFfyTAShB8OUmIxenT+2+fP2eG9M7jBq8iY/wCQ/wBsUEQNjBbHyx4avfhT1v7tJWq9nLwy8YKXQomb+v5nmAVcEzUbLM/MiFIB0SAPy19efhigsw/Oyf0PUeY1/Twxo/J3+UDyqAqwSQ7DDsvklqlYg/n0sTr8MeRfin5AVCLLU1fPS9CUMoT0Sm0m4S6Zm0PB1WT+fyJ+dqHhdmfxBQo1pyRSeNWjnBREsRnkvN8yl71RU0dhkI4LtVBKJkJGE89OpIqCFQUJncYVc8PxDYc0O08xD4WVKO9Q+7+SEspBHqghesjUWrGszTc0zzoqrXlyquJmJTVaoAdIdAAGEfDT5X6fxOTPPj9XhYYiDyYtn8kBgTYMKj4tVraXvzG1laZ99GF2lzIyIquisngfwk+V+v8AE5LPL79PhZyY734xAdRuoLc4ga+HmM+1g0qbM8cbKuuc5lysPzBM3gIygbaZYtwnjuZGGMYtT5f6fxI4Baw1pvC9U9DefiO9xQQ47SqKpAzU2vAMS3F1ZfanKiIOiWL7iUkYGasSFNPOxYzQxSButs0eTPk/r/F9LkgAKPC+g1f4vKHxmYjXbL7D2DQ4V2DsmjGzS12xVsFSbF6Poxsv1VhzLbViLvMwqQtWm6o4N/iu9YB8MXFMSfZw/vuNM08MAZ7Se5M3XL2/u0uAXLJqhfNiPhlCL/V/uqBMXZyPDRg1Qs0kgJERH+45VKekeG6jHNaD+2o7D35uQ8OGBSEmKZm/s5dOe2rChyMXVr4dYusXoss/2k/ro+VQM2ZzSLfo8P4M/enkxZWdH+qlRQAzYYALPEKgYI+VGKjY/pnTvMGa5/oPEZV3mJv48yUf6FcL7s+hDdTc8TLZOP8AIPvuRsUbE/JSq+bQwFPnl9jxUK7Ebo+/ITcsqTVT5H3MSsDowSKQRUT4nXNC9VUyX2B/uUr2MW+L6KqZ/vUszU+2ZGfbHz2gQAMCv+rr/9k=;" vertex="1" parent="1">
          <mxGeometry x="122" y="326" width="46" height="82" as="geometry" />
        </mxCell>
        <mxCell id="WY3tp5vB1RY4RBT_FnPr-10" value="" style="shape=image;html=1;verticalAlign=top;verticalLabelPosition=bottom;labelBackgroundColor=#ffffff;imageAspect=0;aspect=fixed;image=https://cdn4.iconfinder.com/data/icons/devine_icons/128/PNG/File%20Types/WAV.png" vertex="1" parent="1">
          <mxGeometry x="352" y="295" width="44" height="44" as="geometry" />
        </mxCell>
        <mxCell id="WY3tp5vB1RY4RBT_FnPr-11" value="" style="endArrow=classic;html=1;strokeWidth=3;" edge="1" parent="1">
          <mxGeometry width="50" height="50" relative="1" as="geometry">
            <mxPoint x="272" y="345" as="sourcePoint" />
            <mxPoint x="476" y="345" as="targetPoint" />
          </mxGeometry>
        </mxCell>
        <mxCell id="WY3tp5vB1RY4RBT_FnPr-12" value="" style="endArrow=classic;html=1;strokeWidth=3;" edge="1" parent="1">
          <mxGeometry width="50" height="50" relative="1" as="geometry">
            <mxPoint x="604" y="345" as="sourcePoint" />
            <mxPoint x="807.9999999999998" y="345" as="targetPoint" />
          </mxGeometry>
        </mxCell>
        <mxCell id="WY3tp5vB1RY4RBT_FnPr-14" value="" style="endArrow=classic;html=1;strokeWidth=3;" edge="1" parent="1">
          <mxGeometry width="50" height="50" relative="1" as="geometry">
            <mxPoint x="804" y="385" as="sourcePoint" />
            <mxPoint x="603.9999999999998" y="385.0000000000001" as="targetPoint" />
          </mxGeometry>
        </mxCell>
        <mxCell id="WY3tp5vB1RY4RBT_FnPr-15" value="" style="endArrow=classic;html=1;strokeWidth=3;" edge="1" parent="1">
          <mxGeometry width="50" height="50" relative="1" as="geometry">
            <mxPoint x="472" y="385" as="sourcePoint" />
            <mxPoint x="271.9999999999998" y="385" as="targetPoint" />
          </mxGeometry>
        </mxCell>
        <mxCell id="WY3tp5vB1RY4RBT_FnPr-17" value="" style="shape=image;html=1;verticalAlign=top;verticalLabelPosition=bottom;labelBackgroundColor=#ffffff;imageAspect=0;aspect=fixed;image=https://cdn4.iconfinder.com/data/icons/devine_icons/128/PNG/File%20Types/WAV.png" vertex="1" parent="1">
          <mxGeometry x="690" y="295" width="44" height="44" as="geometry" />
        </mxCell>
        <mxCell id="WY3tp5vB1RY4RBT_FnPr-22" value="" style="endArrow=classic;html=1;strokeWidth=3;" edge="1" parent="1">
          <mxGeometry width="50" height="50" relative="1" as="geometry">
            <mxPoint x="537.41" y="445" as="sourcePoint" />
            <mxPoint x="537.4099999999997" y="525" as="targetPoint" />
          </mxGeometry>
        </mxCell>
        <mxCell id="WY3tp5vB1RY4RBT_FnPr-23" value="" style="dashed=0;outlineConnect=0;html=1;align=center;labelPosition=center;verticalLabelPosition=bottom;verticalAlign=top;shape=mxgraph.weblogos.json_2" vertex="1" parent="1">
          <mxGeometry x="671.8" y="389.8" width="80.4" height="25.200000000000003" as="geometry" />
        </mxCell>
        <mxCell id="WY3tp5vB1RY4RBT_FnPr-24" value="" style="dashed=0;outlineConnect=0;html=1;align=center;labelPosition=center;verticalLabelPosition=bottom;verticalAlign=top;shape=mxgraph.weblogos.json_2" vertex="1" parent="1">
          <mxGeometry x="333.8" y="389.8" width="80.4" height="25.200000000000003" as="geometry" />
        </mxCell>
        <mxCell id="WY3tp5vB1RY4RBT_FnPr-27" value="" style="shape=image;html=1;verticalAlign=top;verticalLabelPosition=bottom;labelBackgroundColor=#ffffff;imageAspect=0;aspect=fixed;image=https://cdn4.iconfinder.com/data/icons/scripting-and-programming-languages/512/660277-Python_logo-128.png" vertex="1" parent="1">
          <mxGeometry x="840" y="282" width="109" height="109" as="geometry" />
        </mxCell>
        <mxCell id="WY3tp5vB1RY4RBT_FnPr-28" value="" style="shape=image;html=1;verticalAlign=top;verticalLabelPosition=bottom;labelBackgroundColor=#ffffff;imageAspect=0;aspect=fixed;image=https://cdn4.iconfinder.com/data/icons/logos-brands-5/24/flask-128.png;fontColor=#0000FF;" vertex="1" parent="1">
          <mxGeometry x="921" y="356.8" width="60" height="60" as="geometry" />
        </mxCell>
        <mxCell id="WY3tp5vB1RY4RBT_FnPr-29" value="" style="aspect=fixed;html=1;points=[];align=center;image;fontSize=12;image=img/lib/mscae/Docker.svg;" vertex="1" parent="1">
          <mxGeometry x="851" y="382" width="50" height="41" as="geometry" />
        </mxCell>
        <mxCell id="WY3tp5vB1RY4RBT_FnPr-30" value="Cloud Run" style="swimlane;fontColor=#0000FF;startSize=23;" vertex="1" parent="1">
          <mxGeometry x="810" y="280" width="190" height="160" as="geometry">
            <mxRectangle x="810" y="300" width="90" height="23" as="alternateBounds" />
          </mxGeometry>
        </mxCell>
        <mxCell id="WY3tp5vB1RY4RBT_FnPr-32" value="" style="shape=image;html=1;verticalAlign=top;verticalLabelPosition=bottom;labelBackgroundColor=#ffffff;imageAspect=0;aspect=fixed;image=https://cdn0.iconfinder.com/data/icons/electronics-line-style/64/Laptop-128.png;fontColor=#0000FF;" vertex="1" parent="1">
          <mxGeometry x="177" y="333" width="90" height="90" as="geometry" />
        </mxCell>
        <mxCell id="WY3tp5vB1RY4RBT_FnPr-33" value="" style="shape=image;html=1;verticalAlign=top;verticalLabelPosition=bottom;labelBackgroundColor=#ffffff;imageAspect=0;aspect=fixed;image=https://cdn0.iconfinder.com/data/icons/google-material-design-3-0/48/ic_http_48px-128.png;fontColor=#0000FF;" vertex="1" parent="1">
          <mxGeometry x="474" y="381.8" width="60" height="60" as="geometry" />
        </mxCell>
        <mxCell id="WY3tp5vB1RY4RBT_FnPr-34" value="" style="shape=image;html=1;verticalAlign=top;verticalLabelPosition=bottom;labelBackgroundColor=#ffffff;imageAspect=0;aspect=fixed;image=https://cdn4.iconfinder.com/data/icons/devine_icons/128/PNG/File%20Types/WAV.png" vertex="1" parent="1">
          <mxGeometry x="540" y="455" width="44" height="44" as="geometry" />
        </mxCell>
        <mxCell id="WY3tp5vB1RY4RBT_FnPr-37" value="" style="shape=image;html=1;verticalAlign=top;verticalLabelPosition=bottom;labelBackgroundColor=#ffffff;imageAspect=0;aspect=fixed;image=https://cdn4.iconfinder.com/data/icons/google-i-o-2016/512/google_firebase-2-128.png;fontColor=#9AC7BF;" vertex="1" parent="1">
          <mxGeometry x="474" y="505" width="128" height="128" as="geometry" />
        </mxCell>
        <mxCell id="WY3tp5vB1RY4RBT_FnPr-38" value="&lt;font style=&quot;font-size: 17px&quot; color=&quot;#333333&quot; face=&quot;Lucida Console&quot;&gt;Firebase Storage&lt;/font&gt;" style="text;html=1;strokeColor=none;fillColor=none;align=center;verticalAlign=middle;whiteSpace=wrap;rounded=0;fontColor=#9AC7BF;" vertex="1" parent="1">
          <mxGeometry x="473" y="615" width="130" height="52" as="geometry" />
        </mxCell>
      </root>
    </mxGraphModel>
  </diagram>
</mxfile>
